<?xml version="1.0" encoding="utf-8" standalone="no"?>
<!DOCTYPE svg PUBLIC "-//W3C//DTD SVG 1.1//EN"
  "http://www.w3.org/Graphics/SVG/1.1/DTD/svg11.dtd">
<!-- Created with matplotlib (http://matplotlib.org/) -->
<svg height="288pt" version="1.1" viewBox="0 0 432 288" width="432pt" xmlns="http://www.w3.org/2000/svg" xmlns:xlink="http://www.w3.org/1999/xlink">
 <defs>
  <style type="text/css">
*{stroke-linecap:butt;stroke-linejoin:round;}
  </style>
 </defs>
 <g id="figure_1">
  <g id="patch_1">
   <path d="
M0 288
L432 288
L432 0
L0 0
z
" style="fill:#ffffff;"/>
  </g>
  <g id="axes_1">
   <g id="patch_2">
    <path d="
M54 252
L388.8 252
L388.8 28.8
L54 28.8
z
" style="fill:none;"/>
   </g>
   <g id="line2d_1">
    <path clip-path="url(#p124b8dd147)" d="
M54 252
L57.348 252
L60.696 252
L64.044 252
L67.392 252
L70.74 252
L74.088 252
L77.436 252
L80.784 252
L84.132 252
L87.48 252
L90.828 252
L94.176 252
L97.524 252
L100.872 252
L104.22 252
L107.568 252
L110.916 252
L114.264 252
L117.612 251.999
L120.96 251.999
L124.308 251.997
L127.656 251.992
L131.004 251.983
L134.352 251.963
L137.7 251.924
L141.048 251.851
L144.396 251.717
L147.744 251.482
L151.092 251.086
L154.44 250.444
L157.788 249.437
L161.136 247.915
L164.484 245.693
L167.832 242.559
L171.18 238.286
L174.528 232.652
L177.876 225.468
L181.224 216.612
L184.572 206.058
L187.92 193.907
L191.268 180.41
L194.616 165.966
L197.964 151.118
L201.312 136.517
L204.66 122.875
L208.008 110.908
L211.356 101.27
L214.704 94.4938
L218.052 90.9411
L221.4 90.7715
L224.748 93.9329
L228.096 100.172
L231.444 109.068
L234.792 120.073
L238.14 132.572
L241.488 145.929
L244.836 159.543
L248.184 172.883
L251.532 185.516
L254.88 197.122
L258.228 207.491
L261.576 216.521
L264.924 224.198
L268.272 230.577
L271.62 235.764
L274.968 239.894
L278.316 243.118
L281.664 245.586
L285.012 247.44
L288.36 248.808
L291.708 249.799
L295.056 250.506
L298.404 251
L301.752 251.341
L305.1 251.572
L308.448 251.726
L311.796 251.827
L315.144 251.892
L318.492 251.934
L321.84 251.96
L325.188 251.976
L328.536 251.986
L331.884 251.992
L335.232 251.995
L338.58 251.997
L341.928 251.998
L345.276 251.999
L348.624 252
L351.972 252
L355.32 252
L358.668 252
L362.016 252
L365.364 252
L368.712 252
L372.06 252
L375.408 252
L378.756 252
L382.104 252
L385.452 252" style="fill:none;stroke:#e86850;stroke-linecap:square;stroke-width:3;"/>
    <defs>
     <path d="
M0 1.5
C0.397805 1.5 0.77937 1.34195 1.06066 1.06066
C1.34195 0.77937 1.5 0.397805 1.5 0
C1.5 -0.397805 1.34195 -0.77937 1.06066 -1.06066
C0.77937 -1.34195 0.397805 -1.5 0 -1.5
C-0.397805 -1.5 -0.77937 -1.34195 -1.06066 -1.06066
C-1.34195 -0.77937 -1.5 -0.397805 -1.5 0
C-1.5 0.397805 -1.34195 0.77937 -1.06066 1.06066
C-0.77937 1.34195 -0.397805 1.5 0 1.5
z
" id="mea44248831" style="stroke:#e86850;stroke-width:0.5;"/>
    </defs>
    <g clip-path="url(#p124b8dd147)">
     <use style="fill:#e86850;stroke:#e86850;stroke-width:0.5;" x="54.0" xlink:href="#mea44248831" y="252.0"/>
     <use style="fill:#e86850;stroke:#e86850;stroke-width:0.5;" x="57.348" xlink:href="#mea44248831" y="252.0"/>
     <use style="fill:#e86850;stroke:#e86850;stroke-width:0.5;" x="60.696" xlink:href="#mea44248831" y="252.0"/>
     <use style="fill:#e86850;stroke:#e86850;stroke-width:0.5;" x="64.044" xlink:href="#mea44248831" y="252.0"/>
     <use style="fill:#e86850;stroke:#e86850;stroke-width:0.5;" x="67.392" xlink:href="#mea44248831" y="252.0"/>
     <use style="fill:#e86850;stroke:#e86850;stroke-width:0.5;" x="70.74" xlink:href="#mea44248831" y="252.0"/>
     <use style="fill:#e86850;stroke:#e86850;stroke-width:0.5;" x="74.088" xlink:href="#mea44248831" y="252.0"/>
     <use style="fill:#e86850;stroke:#e86850;stroke-width:0.5;" x="77.436" xlink:href="#mea44248831" y="252.0"/>
     <use style="fill:#e86850;stroke:#e86850;stroke-width:0.5;" x="80.784" xlink:href="#mea44248831" y="252.0"/>
     <use style="fill:#e86850;stroke:#e86850;stroke-width:0.5;" x="84.132" xlink:href="#mea44248831" y="251.999999999"/>
     <use style="fill:#e86850;stroke:#e86850;stroke-width:0.5;" x="87.48" xlink:href="#mea44248831" y="251.999999994"/>
     <use style="fill:#e86850;stroke:#e86850;stroke-width:0.5;" x="90.828" xlink:href="#mea44248831" y="251.99999997"/>
     <use style="fill:#e86850;stroke:#e86850;stroke-width:0.5;" x="94.176" xlink:href="#mea44248831" y="251.99999987"/>
     <use style="fill:#e86850;stroke:#e86850;stroke-width:0.5;" x="97.524" xlink:href="#mea44248831" y="251.999999479"/>
     <use style="fill:#e86850;stroke:#e86850;stroke-width:0.5;" x="100.872" xlink:href="#mea44248831" y="251.999998066"/>
     <use style="fill:#e86850;stroke:#e86850;stroke-width:0.5;" x="104.22" xlink:href="#mea44248831" y="251.999993308"/>
     <use style="fill:#e86850;stroke:#e86850;stroke-width:0.5;" x="107.568" xlink:href="#mea44248831" y="251.999978316"/>
     <use style="fill:#e86850;stroke:#e86850;stroke-width:0.5;" x="110.916" xlink:href="#mea44248831" y="251.99993394"/>
     <use style="fill:#e86850;stroke:#e86850;stroke-width:0.5;" x="114.264" xlink:href="#mea44248831" y="251.999810126"/>
     <use style="fill:#e86850;stroke:#e86850;stroke-width:0.5;" x="117.612" xlink:href="#mea44248831" y="251.999483501"/>
     <use style="fill:#e86850;stroke:#e86850;stroke-width:0.5;" x="120.96" xlink:href="#mea44248831" y="251.998666616"/>
     <use style="fill:#e86850;stroke:#e86850;stroke-width:0.5;" x="124.308" xlink:href="#mea44248831" y="251.996725022"/>
     <use style="fill:#e86850;stroke:#e86850;stroke-width:0.5;" x="127.656" xlink:href="#mea44248831" y="251.992329656"/>
     <use style="fill:#e86850;stroke:#e86850;stroke-width:0.5;" x="131.004" xlink:href="#mea44248831" y="251.982833875"/>
     <use style="fill:#e86850;stroke:#e86850;stroke-width:0.5;" x="134.352" xlink:href="#mea44248831" y="251.963220824"/>
     <use style="fill:#e86850;stroke:#e86850;stroke-width:0.5;" x="137.7" xlink:href="#mea44248831" y="251.924428473"/>
     <use style="fill:#e86850;stroke:#e86850;stroke-width:0.5;" x="141.048" xlink:href="#mea44248831" y="251.85084567"/>
     <use style="fill:#e86850;stroke:#e86850;stroke-width:0.5;" x="144.396" xlink:href="#mea44248831" y="251.716810297"/>
     <use style="fill:#e86850;stroke:#e86850;stroke-width:0.5;" x="147.744" xlink:href="#mea44248831" y="251.482060937"/>
     <use style="fill:#e86850;stroke:#e86850;stroke-width:0.5;" x="151.092" xlink:href="#mea44248831" y="251.086321654"/>
     <use style="fill:#e86850;stroke:#e86850;stroke-width:0.5;" x="154.44" xlink:href="#mea44248831" y="250.443540922"/>
     <use style="fill:#e86850;stroke:#e86850;stroke-width:0.5;" x="157.788" xlink:href="#mea44248831" y="249.43673123"/>
     <use style="fill:#e86850;stroke:#e86850;stroke-width:0.5;" x="161.136" xlink:href="#mea44248831" y="247.914790398"/>
     <use style="fill:#e86850;stroke:#e86850;stroke-width:0.5;" x="164.484" xlink:href="#mea44248831" y="245.693009737"/>
     <use style="fill:#e86850;stroke:#e86850;stroke-width:0.5;" x="167.832" xlink:href="#mea44248831" y="242.55904089"/>
     <use style="fill:#e86850;stroke:#e86850;stroke-width:0.5;" x="171.18" xlink:href="#mea44248831" y="238.285764662"/>
     <use style="fill:#e86850;stroke:#e86850;stroke-width:0.5;" x="174.528" xlink:href="#mea44248831" y="232.651700144"/>
     <use style="fill:#e86850;stroke:#e86850;stroke-width:0.5;" x="177.876" xlink:href="#mea44248831" y="225.468334195"/>
     <use style="fill:#e86850;stroke:#e86850;stroke-width:0.5;" x="181.224" xlink:href="#mea44248831" y="216.61219644"/>
     <use style="fill:#e86850;stroke:#e86850;stroke-width:0.5;" x="184.572" xlink:href="#mea44248831" y="206.057939238"/>
     <use style="fill:#e86850;stroke:#e86850;stroke-width:0.5;" x="187.92" xlink:href="#mea44248831" y="193.907473169"/>
     <use style="fill:#e86850;stroke:#e86850;stroke-width:0.5;" x="191.268" xlink:href="#mea44248831" y="180.409723032"/>
     <use style="fill:#e86850;stroke:#e86850;stroke-width:0.5;" x="194.616" xlink:href="#mea44248831" y="165.966070661"/>
     <use style="fill:#e86850;stroke:#e86850;stroke-width:0.5;" x="197.964" xlink:href="#mea44248831" y="151.118109784"/>
     <use style="fill:#e86850;stroke:#e86850;stroke-width:0.5;" x="201.312" xlink:href="#mea44248831" y="136.516783568"/>
     <use style="fill:#e86850;stroke:#e86850;stroke-width:0.5;" x="204.66" xlink:href="#mea44248831" y="122.87490654"/>
     <use style="fill:#e86850;stroke:#e86850;stroke-width:0.5;" x="208.008" xlink:href="#mea44248831" y="110.907935635"/>
     <use style="fill:#e86850;stroke:#e86850;stroke-width:0.5;" x="211.356" xlink:href="#mea44248831" y="101.270067857"/>
     <use style="fill:#e86850;stroke:#e86850;stroke-width:0.5;" x="214.704" xlink:href="#mea44248831" y="94.4938318723"/>
     <use style="fill:#e86850;stroke:#e86850;stroke-width:0.5;" x="218.052" xlink:href="#mea44248831" y="90.9410611626"/>
     <use style="fill:#e86850;stroke:#e86850;stroke-width:0.5;" x="221.4" xlink:href="#mea44248831" y="90.7715254376"/>
     <use style="fill:#e86850;stroke:#e86850;stroke-width:0.5;" x="224.748" xlink:href="#mea44248831" y="93.9328680762"/>
     <use style="fill:#e86850;stroke:#e86850;stroke-width:0.5;" x="228.096" xlink:href="#mea44248831" y="100.172360126"/>
     <use style="fill:#e86850;stroke:#e86850;stroke-width:0.5;" x="231.444" xlink:href="#mea44248831" y="109.067921945"/>
     <use style="fill:#e86850;stroke:#e86850;stroke-width:0.5;" x="234.792" xlink:href="#mea44248831" y="120.073413336"/>
     <use style="fill:#e86850;stroke:#e86850;stroke-width:0.5;" x="238.14" xlink:href="#mea44248831" y="132.571721546"/>
     <use style="fill:#e86850;stroke:#e86850;stroke-width:0.5;" x="241.488" xlink:href="#mea44248831" y="145.928831636"/>
     <use style="fill:#e86850;stroke:#e86850;stroke-width:0.5;" x="244.836" xlink:href="#mea44248831" y="159.542767373"/>
     <use style="fill:#e86850;stroke:#e86850;stroke-width:0.5;" x="248.184" xlink:href="#mea44248831" y="172.88278551"/>
     <use style="fill:#e86850;stroke:#e86850;stroke-width:0.5;" x="251.532" xlink:href="#mea44248831" y="185.516131981"/>
     <use style="fill:#e86850;stroke:#e86850;stroke-width:0.5;" x="254.88" xlink:href="#mea44248831" y="197.121649293"/>
     <use style="fill:#e86850;stroke:#e86850;stroke-width:0.5;" x="258.228" xlink:href="#mea44248831" y="207.49124274"/>
     <use style="fill:#e86850;stroke:#e86850;stroke-width:0.5;" x="261.576" xlink:href="#mea44248831" y="216.521457498"/>
     <use style="fill:#e86850;stroke:#e86850;stroke-width:0.5;" x="264.924" xlink:href="#mea44248831" y="224.198101197"/>
     <use style="fill:#e86850;stroke:#e86850;stroke-width:0.5;" x="268.272" xlink:href="#mea44248831" y="230.576990807"/>
     <use style="fill:#e86850;stroke:#e86850;stroke-width:0.5;" x="271.62" xlink:href="#mea44248831" y="235.763614086"/>
     <use style="fill:#e86850;stroke:#e86850;stroke-width:0.5;" x="274.968" xlink:href="#mea44248831" y="239.893922783"/>
     <use style="fill:#e86850;stroke:#e86850;stroke-width:0.5;" x="278.316" xlink:href="#mea44248831" y="243.117772097"/>
     <use style="fill:#e86850;stroke:#e86850;stroke-width:0.5;" x="281.664" xlink:href="#mea44248831" y="245.585821491"/>
     <use style="fill:#e86850;stroke:#e86850;stroke-width:0.5;" x="285.012" xlink:href="#mea44248831" y="247.440111083"/>
     <use style="fill:#e86850;stroke:#e86850;stroke-width:0.5;" x="288.36" xlink:href="#mea44248831" y="248.808077758"/>
     <use style="fill:#e86850;stroke:#e86850;stroke-width:0.5;" x="291.708" xlink:href="#mea44248831" y="249.799490226"/>
     <use style="fill:#e86850;stroke:#e86850;stroke-width:0.5;" x="295.056" xlink:href="#mea44248831" y="250.505647968"/>
     <use style="fill:#e86850;stroke:#e86850;stroke-width:0.5;" x="298.404" xlink:href="#mea44248831" y="251.000173983"/>
     <use style="fill:#e86850;stroke:#e86850;stroke-width:0.5;" x="301.752" xlink:href="#mea44248831" y="251.340797498"/>
     <use style="fill:#e86850;stroke:#e86850;stroke-width:0.5;" x="305.1" xlink:href="#mea44248831" y="251.571634023"/>
     <use style="fill:#e86850;stroke:#e86850;stroke-width:0.5;" x="308.448" xlink:href="#mea44248831" y="251.725596587"/>
     <use style="fill:#e86850;stroke:#e86850;stroke-width:0.5;" x="311.796" xlink:href="#mea44248831" y="251.826692581"/>
     <use style="fill:#e86850;stroke:#e86850;stroke-width:0.5;" x="315.144" xlink:href="#mea44248831" y="251.892062923"/>
     <use style="fill:#e86850;stroke:#e86850;stroke-width:0.5;" x="318.492" xlink:href="#mea44248831" y="251.933698878"/>
     <use style="fill:#e86850;stroke:#e86850;stroke-width:0.5;" x="321.84" xlink:href="#mea44248831" y="251.959826754"/>
     <use style="fill:#e86850;stroke:#e86850;stroke-width:0.5;" x="325.188" xlink:href="#mea44248831" y="251.975984804"/>
     <use style="fill:#e86850;stroke:#e86850;stroke-width:0.5;" x="328.536" xlink:href="#mea44248831" y="251.985834426"/>
     <use style="fill:#e86850;stroke:#e86850;stroke-width:0.5;" x="331.884" xlink:href="#mea44248831" y="251.991753965"/>
     <use style="fill:#e86850;stroke:#e86850;stroke-width:0.5;" x="335.232" xlink:href="#mea44248831" y="251.995262147"/>
     <use style="fill:#e86850;stroke:#e86850;stroke-width:0.5;" x="338.58" xlink:href="#mea44248831" y="251.997312772"/>
     <use style="fill:#e86850;stroke:#e86850;stroke-width:0.5;" x="341.928" xlink:href="#mea44248831" y="251.998495218"/>
     <use style="fill:#e86850;stroke:#e86850;stroke-width:0.5;" x="345.276" xlink:href="#mea44248831" y="251.999167955"/>
     <use style="fill:#e86850;stroke:#e86850;stroke-width:0.5;" x="348.624" xlink:href="#mea44248831" y="251.999545659"/>
     <use style="fill:#e86850;stroke:#e86850;stroke-width:0.5;" x="351.972" xlink:href="#mea44248831" y="251.999754962"/>
     <use style="fill:#e86850;stroke:#e86850;stroke-width:0.5;" x="355.32" xlink:href="#mea44248831" y="251.999869457"/>
     <use style="fill:#e86850;stroke:#e86850;stroke-width:0.5;" x="358.668" xlink:href="#mea44248831" y="251.999931293"/>
     <use style="fill:#e86850;stroke:#e86850;stroke-width:0.5;" x="362.016" xlink:href="#mea44248831" y="251.999964271"/>
     <use style="fill:#e86850;stroke:#e86850;stroke-width:0.5;" x="365.364" xlink:href="#mea44248831" y="251.99998164"/>
     <use style="fill:#e86850;stroke:#e86850;stroke-width:0.5;" x="368.712" xlink:href="#mea44248831" y="251.999990676"/>
     <use style="fill:#e86850;stroke:#e86850;stroke-width:0.5;" x="372.06" xlink:href="#mea44248831" y="251.99999532"/>
     <use style="fill:#e86850;stroke:#e86850;stroke-width:0.5;" x="375.408" xlink:href="#mea44248831" y="251.999997678"/>
     <use style="fill:#e86850;stroke:#e86850;stroke-width:0.5;" x="378.756" xlink:href="#mea44248831" y="251.999998861"/>
     <use style="fill:#e86850;stroke:#e86850;stroke-width:0.5;" x="382.104" xlink:href="#mea44248831" y="251.999999448"/>
     <use style="fill:#e86850;stroke:#e86850;stroke-width:0.5;" x="385.452" xlink:href="#mea44248831" y="251.999999735"/>
    </g>
   </g>
   <g id="line2d_2">
    <path clip-path="url(#p124b8dd147)" d="
M54 252
L57.348 252
L60.696 252
L64.044 252
L67.392 252
L70.74 252
L74.088 252
L77.436 251.999
L80.784 251.997
L84.132 251.989
L87.48 251.965
L90.828 251.903
L94.176 251.753
L97.524 251.42
L100.872 250.735
L104.22 249.428
L107.568 247.103
L110.916 243.234
L114.264 237.194
L117.612 228.332
L120.96 216.096
L124.308 200.179
L127.656 180.68
L131.004 158.206
L134.352 133.912
L137.7 109.418
L141.048 86.6341
L144.396 67.5024
L147.744 53.7126
L151.092 46.4522
L154.44 46.2403
L157.788 52.8777
L161.136 65.5153
L164.484 82.818
L167.832 103.183
L171.18 124.969
L174.528 146.686
L177.876 167.139
L181.224 185.488
L184.572 201.259
L187.92 214.297
L191.268 224.697
L194.616 232.719
L197.964 238.715
L201.312 243.063
L204.66 246.128
L208.008 248.23
L211.356 249.633
L214.704 250.547
L218.052 251.127
L221.4 251.486
L224.748 251.704
L228.096 251.833
L231.444 251.908
L234.792 251.95
L238.14 251.973
L241.488 251.986
L244.836 251.993
L248.184 251.996
L251.532 251.998
L254.88 251.999
L258.228 252
L261.576 252
L264.924 252
L268.272 252
L271.62 252
L274.968 252
L278.316 252
L281.664 252
L285.012 252
L288.36 252
L291.708 252
L295.056 252
L298.404 252
L301.752 252
L305.1 252
L308.448 252
L311.796 252
L315.144 252
L318.492 252
L321.84 252
L325.188 252
L328.536 252
L331.884 252
L335.232 252
L338.58 252
L341.928 252
L345.276 252
L348.624 252
L351.972 252
L355.32 252
L358.668 252
L362.016 252
L365.364 252
L368.712 252
L372.06 252
L375.408 252
L378.756 252
L382.104 252
L385.452 252" style="fill:none;stroke:#587498;stroke-linecap:square;stroke-width:3;"/>
    <defs>
     <path d="
M0 1.5
C0.397805 1.5 0.77937 1.34195 1.06066 1.06066
C1.34195 0.77937 1.5 0.397805 1.5 0
C1.5 -0.397805 1.34195 -0.77937 1.06066 -1.06066
C0.77937 -1.34195 0.397805 -1.5 0 -1.5
C-0.397805 -1.5 -0.77937 -1.34195 -1.06066 -1.06066
C-1.34195 -0.77937 -1.5 -0.397805 -1.5 0
C-1.5 0.397805 -1.34195 0.77937 -1.06066 1.06066
C-0.77937 1.34195 -0.397805 1.5 0 1.5
z
" id="m46c498667d" style="stroke:#587498;stroke-width:0.5;"/>
    </defs>
    <g clip-path="url(#p124b8dd147)">
     <use style="fill:#587498;stroke:#587498;stroke-width:0.5;" x="54.0" xlink:href="#m46c498667d" y="252.0"/>
     <use style="fill:#587498;stroke:#587498;stroke-width:0.5;" x="57.348" xlink:href="#m46c498667d" y="251.999999995"/>
     <use style="fill:#587498;stroke:#587498;stroke-width:0.5;" x="60.696" xlink:href="#m46c498667d" y="251.999999921"/>
     <use style="fill:#587498;stroke:#587498;stroke-width:0.5;" x="64.044" xlink:href="#m46c498667d" y="251.999999189"/>
     <use style="fill:#587498;stroke:#587498;stroke-width:0.5;" x="67.392" xlink:href="#m46c498667d" y="251.999993749"/>
     <use style="fill:#587498;stroke:#587498;stroke-width:0.5;" x="70.74" xlink:href="#m46c498667d" y="251.999961492"/>
     <use style="fill:#587498;stroke:#587498;stroke-width:0.5;" x="74.088" xlink:href="#m46c498667d" y="251.999802496"/>
     <use style="fill:#587498;stroke:#587498;stroke-width:0.5;" x="77.436" xlink:href="#m46c498667d" y="251.99913261"/>
     <use style="fill:#587498;stroke:#587498;stroke-width:0.5;" x="80.784" xlink:href="#m46c498667d" y="251.99667016"/>
     <use style="fill:#587498;stroke:#587498;stroke-width:0.5;" x="84.132" xlink:href="#m46c498667d" y="251.988648793"/>
     <use style="fill:#587498;stroke:#587498;stroke-width:0.5;" x="87.48" xlink:href="#m46c498667d" y="251.965209137"/>
     <use style="fill:#587498;stroke:#587498;stroke-width:0.5;" x="90.828" xlink:href="#m46c498667d" y="251.903159452"/>
     <use style="fill:#587498;stroke:#587498;stroke-width:0.5;" x="94.176" xlink:href="#m46c498667d" y="251.753156439"/>
     <use style="fill:#587498;stroke:#587498;stroke-width:0.5;" x="97.524" xlink:href="#m46c498667d" y="251.419790392"/>
     <use style="fill:#587498;stroke:#587498;stroke-width:0.5;" x="100.872" xlink:href="#m46c498667d" y="250.734903793"/>
     <use style="fill:#587498;stroke:#587498;stroke-width:0.5;" x="104.22" xlink:href="#m46c498667d" y="249.428072453"/>
     <use style="fill:#587498;stroke:#587498;stroke-width:0.5;" x="107.568" xlink:href="#m46c498667d" y="247.103063207"/>
     <use style="fill:#587498;stroke:#587498;stroke-width:0.5;" x="110.916" xlink:href="#m46c498667d" y="243.233621945"/>
     <use style="fill:#587498;stroke:#587498;stroke-width:0.5;" x="114.264" xlink:href="#m46c498667d" y="237.19355734"/>
     <use style="fill:#587498;stroke:#587498;stroke-width:0.5;" x="117.612" xlink:href="#m46c498667d" y="228.332186611"/>
     <use style="fill:#587498;stroke:#587498;stroke-width:0.5;" x="120.96" xlink:href="#m46c498667d" y="216.095683091"/>
     <use style="fill:#587498;stroke:#587498;stroke-width:0.5;" x="124.308" xlink:href="#m46c498667d" y="200.179336419"/>
     <use style="fill:#587498;stroke:#587498;stroke-width:0.5;" x="127.656" xlink:href="#m46c498667d" y="180.679808371"/>
     <use style="fill:#587498;stroke:#587498;stroke-width:0.5;" x="131.004" xlink:href="#m46c498667d" y="158.206435572"/>
     <use style="fill:#587498;stroke:#587498;stroke-width:0.5;" x="134.352" xlink:href="#m46c498667d" y="133.911968497"/>
     <use style="fill:#587498;stroke:#587498;stroke-width:0.5;" x="137.7" xlink:href="#m46c498667d" y="109.417832478"/>
     <use style="fill:#587498;stroke:#587498;stroke-width:0.5;" x="141.048" xlink:href="#m46c498667d" y="86.6340840594"/>
     <use style="fill:#587498;stroke:#587498;stroke-width:0.5;" x="144.396" xlink:href="#m46c498667d" y="67.5024030627"/>
     <use style="fill:#587498;stroke:#587498;stroke-width:0.5;" x="147.744" xlink:href="#m46c498667d" y="53.7126342196"/>
     <use style="fill:#587498;stroke:#587498;stroke-width:0.5;" x="151.092" xlink:href="#m46c498667d" y="46.4522009898"/>
     <use style="fill:#587498;stroke:#587498;stroke-width:0.5;" x="154.44" xlink:href="#m46c498667d" y="46.2402960425"/>
     <use style="fill:#587498;stroke:#587498;stroke-width:0.5;" x="157.788" xlink:href="#m46c498667d" y="52.8777058473"/>
     <use style="fill:#587498;stroke:#587498;stroke-width:0.5;" x="161.136" xlink:href="#m46c498667d" y="65.5152999028"/>
     <use style="fill:#587498;stroke:#587498;stroke-width:0.5;" x="164.484" xlink:href="#m46c498667d" y="82.8180040354"/>
     <use style="fill:#587498;stroke:#587498;stroke-width:0.5;" x="167.832" xlink:href="#m46c498667d" y="103.183453519"/>
     <use style="fill:#587498;stroke:#587498;stroke-width:0.5;" x="171.18" xlink:href="#m46c498667d" y="124.968968571"/>
     <use style="fill:#587498;stroke:#587498;stroke-width:0.5;" x="174.528" xlink:href="#m46c498667d" y="146.686473085"/>
     <use style="fill:#587498;stroke:#587498;stroke-width:0.5;" x="177.876" xlink:href="#m46c498667d" y="167.138835375"/>
     <use style="fill:#587498;stroke:#587498;stroke-width:0.5;" x="181.224" xlink:href="#m46c498667d" y="185.487817526"/>
     <use style="fill:#587498;stroke:#587498;stroke-width:0.5;" x="184.572" xlink:href="#m46c498667d" y="201.258747391"/>
     <use style="fill:#587498;stroke:#587498;stroke-width:0.5;" x="187.92" xlink:href="#m46c498667d" y="214.297156889"/>
     <use style="fill:#587498;stroke:#587498;stroke-width:0.5;" x="191.268" xlink:href="#m46c498667d" y="224.696960483"/>
     <use style="fill:#587498;stroke:#587498;stroke-width:0.5;" x="194.616" xlink:href="#m46c498667d" y="232.718987557"/>
     <use style="fill:#587498;stroke:#587498;stroke-width:0.5;" x="197.964" xlink:href="#m46c498667d" y="238.71454573"/>
     <use style="fill:#587498;stroke:#587498;stroke-width:0.5;" x="201.312" xlink:href="#m46c498667d" y="243.063135143"/>
     <use style="fill:#587498;stroke:#587498;stroke-width:0.5;" x="204.66" xlink:href="#m46c498667d" y="246.128080548"/>
     <use style="fill:#587498;stroke:#587498;stroke-width:0.5;" x="208.008" xlink:href="#m46c498667d" y="248.229706582"/>
     <use style="fill:#587498;stroke:#587498;stroke-width:0.5;" x="211.356" xlink:href="#m46c498667d" y="249.633125738"/>
     <use style="fill:#587498;stroke:#587498;stroke-width:0.5;" x="214.704" xlink:href="#m46c498667d" y="250.546629399"/>
     <use style="fill:#587498;stroke:#587498;stroke-width:0.5;" x="218.052" xlink:href="#m46c498667d" y="251.126693365"/>
     <use style="fill:#587498;stroke:#587498;stroke-width:0.5;" x="221.4" xlink:href="#m46c498667d" y="251.486279623"/>
     <use style="fill:#587498;stroke:#587498;stroke-width:0.5;" x="224.748" xlink:href="#m46c498667d" y="251.704042233"/>
     <use style="fill:#587498;stroke:#587498;stroke-width:0.5;" x="228.096" xlink:href="#m46c498667d" y="251.832951673"/>
     <use style="fill:#587498;stroke:#587498;stroke-width:0.5;" x="231.444" xlink:href="#m46c498667d" y="251.907588904"/>
     <use style="fill:#587498;stroke:#587498;stroke-width:0.5;" x="234.792" xlink:href="#m46c498667d" y="251.949877831"/>
     <use style="fill:#587498;stroke:#587498;stroke-width:0.5;" x="238.14" xlink:href="#m46c498667d" y="251.973337073"/>
     <use style="fill:#587498;stroke:#587498;stroke-width:0.5;" x="241.488" xlink:href="#m46c498667d" y="251.986084426"/>
     <use style="fill:#587498;stroke:#587498;stroke-width:0.5;" x="244.836" xlink:href="#m46c498667d" y="251.992872327"/>
     <use style="fill:#587498;stroke:#587498;stroke-width:0.5;" x="248.184" xlink:href="#m46c498667d" y="251.996415893"/>
     <use style="fill:#587498;stroke:#587498;stroke-width:0.5;" x="251.532" xlink:href="#m46c498667d" y="251.998230179"/>
     <use style="fill:#587498;stroke:#587498;stroke-width:0.5;" x="254.88" xlink:href="#m46c498667d" y="251.999141545"/>
     <use style="fill:#587498;stroke:#587498;stroke-width:0.5;" x="258.228" xlink:href="#m46c498667d" y="251.999590867"/>
     <use style="fill:#587498;stroke:#587498;stroke-width:0.5;" x="261.576" xlink:href="#m46c498667d" y="251.999808359"/>
     <use style="fill:#587498;stroke:#587498;stroke-width:0.5;" x="264.924" xlink:href="#m46c498667d" y="251.999911753"/>
     <use style="fill:#587498;stroke:#587498;stroke-width:0.5;" x="268.272" xlink:href="#m46c498667d" y="251.999960041"/>
     <use style="fill:#587498;stroke:#587498;stroke-width:0.5;" x="271.62" xlink:href="#m46c498667d" y="251.999982204"/>
     <use style="fill:#587498;stroke:#587498;stroke-width:0.5;" x="274.968" xlink:href="#m46c498667d" y="251.999992203"/>
     <use style="fill:#587498;stroke:#587498;stroke-width:0.5;" x="278.316" xlink:href="#m46c498667d" y="251.999996638"/>
     <use style="fill:#587498;stroke:#587498;stroke-width:0.5;" x="281.664" xlink:href="#m46c498667d" y="251.999998573"/>
     <use style="fill:#587498;stroke:#587498;stroke-width:0.5;" x="285.012" xlink:href="#m46c498667d" y="251.999999404"/>
     <use style="fill:#587498;stroke:#587498;stroke-width:0.5;" x="288.36" xlink:href="#m46c498667d" y="251.999999755"/>
     <use style="fill:#587498;stroke:#587498;stroke-width:0.5;" x="291.708" xlink:href="#m46c498667d" y="251.999999901"/>
     <use style="fill:#587498;stroke:#587498;stroke-width:0.5;" x="295.056" xlink:href="#m46c498667d" y="251.99999996"/>
     <use style="fill:#587498;stroke:#587498;stroke-width:0.5;" x="298.404" xlink:href="#m46c498667d" y="251.999999984"/>
     <use style="fill:#587498;stroke:#587498;stroke-width:0.5;" x="301.752" xlink:href="#m46c498667d" y="251.999999994"/>
     <use style="fill:#587498;stroke:#587498;stroke-width:0.5;" x="305.1" xlink:href="#m46c498667d" y="251.999999998"/>
     <use style="fill:#587498;stroke:#587498;stroke-width:0.5;" x="308.448" xlink:href="#m46c498667d" y="251.999999999"/>
     <use style="fill:#587498;stroke:#587498;stroke-width:0.5;" x="311.796" xlink:href="#m46c498667d" y="252.0"/>
     <use style="fill:#587498;stroke:#587498;stroke-width:0.5;" x="315.144" xlink:href="#m46c498667d" y="252.0"/>
     <use style="fill:#587498;stroke:#587498;stroke-width:0.5;" x="318.492" xlink:href="#m46c498667d" y="252.0"/>
     <use style="fill:#587498;stroke:#587498;stroke-width:0.5;" x="321.84" xlink:href="#m46c498667d" y="252.0"/>
     <use style="fill:#587498;stroke:#587498;stroke-width:0.5;" x="325.188" xlink:href="#m46c498667d" y="252.0"/>
     <use style="fill:#587498;stroke:#587498;stroke-width:0.5;" x="328.536" xlink:href="#m46c498667d" y="252.0"/>
     <use style="fill:#587498;stroke:#587498;stroke-width:0.5;" x="331.884" xlink:href="#m46c498667d" y="252.0"/>
     <use style="fill:#587498;stroke:#587498;stroke-width:0.5;" x="335.232" xlink:href="#m46c498667d" y="252.0"/>
     <use style="fill:#587498;stroke:#587498;stroke-width:0.5;" x="338.58" xlink:href="#m46c498667d" y="252.0"/>
     <use style="fill:#587498;stroke:#587498;stroke-width:0.5;" x="341.928" xlink:href="#m46c498667d" y="252.0"/>
     <use style="fill:#587498;stroke:#587498;stroke-width:0.5;" x="345.276" xlink:href="#m46c498667d" y="252.0"/>
     <use style="fill:#587498;stroke:#587498;stroke-width:0.5;" x="348.624" xlink:href="#m46c498667d" y="252.0"/>
     <use style="fill:#587498;stroke:#587498;stroke-width:0.5;" x="351.972" xlink:href="#m46c498667d" y="252.0"/>
     <use style="fill:#587498;stroke:#587498;stroke-width:0.5;" x="355.32" xlink:href="#m46c498667d" y="252.0"/>
     <use style="fill:#587498;stroke:#587498;stroke-width:0.5;" x="358.668" xlink:href="#m46c498667d" y="252.0"/>
     <use style="fill:#587498;stroke:#587498;stroke-width:0.5;" x="362.016" xlink:href="#m46c498667d" y="252.0"/>
     <use style="fill:#587498;stroke:#587498;stroke-width:0.5;" x="365.364" xlink:href="#m46c498667d" y="252.0"/>
     <use style="fill:#587498;stroke:#587498;stroke-width:0.5;" x="368.712" xlink:href="#m46c498667d" y="252.0"/>
     <use style="fill:#587498;stroke:#587498;stroke-width:0.5;" x="372.06" xlink:href="#m46c498667d" y="252.0"/>
     <use style="fill:#587498;stroke:#587498;stroke-width:0.5;" x="375.408" xlink:href="#m46c498667d" y="252.0"/>
     <use style="fill:#587498;stroke:#587498;stroke-width:0.5;" x="378.756" xlink:href="#m46c498667d" y="252.0"/>
     <use style="fill:#587498;stroke:#587498;stroke-width:0.5;" x="382.104" xlink:href="#m46c498667d" y="252.0"/>
     <use style="fill:#587498;stroke:#587498;stroke-width:0.5;" x="385.452" xlink:href="#m46c498667d" y="252.0"/>
    </g>
   </g>
   <g id="matplotlib.axis_1">
    <g id="xtick_1">
     <g id="line2d_3">
      <defs>
       <path d="
M0 0
L0 -4" id="m93b0483c22" style="stroke:#000000;stroke-width:0.5;"/>
      </defs>
      <g>
       <use style="stroke:#000000;stroke-width:0.5;" x="54.0" xlink:href="#m93b0483c22" y="252.0"/>
      </g>
     </g>
     <g id="line2d_4">
      <defs>
       <path d="
M0 0
L0 4" id="m741efc42ff" style="stroke:#000000;stroke-width:0.5;"/>
      </defs>
      <g>
       <use style="stroke:#000000;stroke-width:0.5;" x="54.0" xlink:href="#m741efc42ff" y="28.8"/>
      </g>
     </g>
     <g id="text_1">
      <!-- 0 -->
      <defs>
       <path d="
M56.9844 36.375
Q56.9844 16.7969 50.8594 7.64062
Q44.7344 -1.51562 31.8438 -1.51562
Q18.75 -1.51562 12.7188 7.76562
Q6.6875 17.0469 6.6875 36.2812
Q6.6875 55.6719 12.7812 64.9219
Q18.8906 74.1719 31.8438 74.1719
Q44.9219 74.1719 50.9531 64.7656
Q56.9844 55.375 56.9844 36.375
M44.1406 14.2031
Q45.8438 18.1719 46.4531 23.5156
Q47.0781 28.8594 47.0781 36.375
Q47.0781 43.7969 46.4531 49.2656
Q45.8438 54.7344 44.0938 58.5469
Q42.3906 62.3125 39.4219 64.2031
Q36.4688 66.1094 31.8438 66.1094
Q27.25 66.1094 24.2344 64.2031
Q21.2344 62.3125 19.4844 58.4531
Q17.8281 54.8281 17.2188 49.0156
Q16.6094 43.2188 16.6094 36.2812
Q16.6094 28.6562 17.1406 23.5312
Q17.6719 18.4062 19.4375 14.3594
Q21.0469 10.5469 24 8.54688
Q26.9531 6.54688 31.8438 6.54688
Q36.4219 6.54688 39.4531 8.45312
Q42.4844 10.3594 44.1406 14.2031" id="Verdana-30"/>
      </defs>
      <g transform="translate(51.48515625 263.5984375)scale(0.1 -0.1)">
       <use xlink:href="#Verdana-30"/>
      </g>
     </g>
    </g>
    <g id="xtick_2">
     <g id="line2d_5">
      <g>
       <use style="stroke:#000000;stroke-width:0.5;" x="120.96" xlink:href="#m93b0483c22" y="252.0"/>
      </g>
     </g>
     <g id="line2d_6">
      <g>
       <use style="stroke:#000000;stroke-width:0.5;" x="120.96" xlink:href="#m741efc42ff" y="28.8"/>
      </g>
     </g>
     <g id="text_2">
      <!-- 20 -->
      <defs>
       <path d="
M57.0781 0
L7.85938 0
L7.85938 10.2031
Q12.9844 14.5938 18.1406 18.9844
Q23.2969 23.3906 27.7344 27.7344
Q37.1094 36.8125 40.5781 42.1562
Q44.0469 47.5156 44.0469 53.7188
Q44.0469 59.375 40.3125 62.5625
Q36.5781 65.7656 29.8906 65.7656
Q25.4375 65.7656 20.2656 64.2031
Q15.0938 62.6406 10.1562 59.4219
L9.67188 59.4219
L9.67188 69.6719
Q13.1406 71.3906 18.9219 72.7969
Q24.7031 74.2188 30.125 74.2188
Q41.3125 74.2188 47.6562 68.8125
Q54 63.4219 54 54.2031
Q54 50.0469 52.9531 46.4531
Q51.9062 42.875 49.8594 39.6562
Q47.9531 36.625 45.3906 33.6875
Q42.8281 30.7656 39.1562 27.2031
Q33.9375 22.0781 28.3594 17.2656
Q22.7969 12.4531 17.9688 8.34375
L57.0781 8.34375
z
" id="Verdana-32"/>
      </defs>
      <g transform="translate(115.32484375 263.5984375)scale(0.1 -0.1)">
       <use xlink:href="#Verdana-32"/>
       <use x="63.57421875" xlink:href="#Verdana-30"/>
      </g>
     </g>
    </g>
    <g id="xtick_3">
     <g id="line2d_7">
      <g>
       <use style="stroke:#000000;stroke-width:0.5;" x="187.92" xlink:href="#m93b0483c22" y="252.0"/>
      </g>
     </g>
     <g id="line2d_8">
      <g>
       <use style="stroke:#000000;stroke-width:0.5;" x="187.92" xlink:href="#m741efc42ff" y="28.8"/>
      </g>
     </g>
     <g id="text_3">
      <!-- 40 -->
      <defs>
       <path d="
M58.7344 20.4531
L47.9531 20.4531
L47.9531 0
L38.5781 0
L38.5781 20.4531
L3.76562 20.4531
L3.76562 31.6875
L38.9688 72.7031
L47.9531 72.7031
L47.9531 28.2656
L58.7344 28.2656
z

M38.5781 28.2656
L38.5781 61.0781
L10.4062 28.2656
z
" id="Verdana-34"/>
      </defs>
      <g transform="translate(182.08015625 263.5984375)scale(0.1 -0.1)">
       <use xlink:href="#Verdana-34"/>
       <use x="63.57421875" xlink:href="#Verdana-30"/>
      </g>
     </g>
    </g>
    <g id="xtick_4">
     <g id="line2d_9">
      <g>
       <use style="stroke:#000000;stroke-width:0.5;" x="254.88" xlink:href="#m93b0483c22" y="252.0"/>
      </g>
     </g>
     <g id="line2d_10">
      <g>
       <use style="stroke:#000000;stroke-width:0.5;" x="254.88" xlink:href="#m741efc42ff" y="28.8"/>
      </g>
     </g>
     <g id="text_4">
      <!-- 60 -->
      <defs>
       <path d="
M58.1562 23.5781
Q58.1562 12.5 50.8594 5.48438
Q43.5625 -1.51562 32.9531 -1.51562
Q27.5938 -1.51562 23.1875 0.140625
Q18.7969 1.8125 15.4375 5.07812
Q11.2344 9.125 8.95312 15.8125
Q6.6875 22.5156 6.6875 31.9375
Q6.6875 41.6094 8.76562 49.0781
Q10.8438 56.5469 15.375 62.3594
Q19.6719 67.875 26.4531 70.9688
Q33.25 74.0781 42.2812 74.0781
Q45.1719 74.0781 47.125 73.8281
Q49.0781 73.5781 51.0781 72.9531
L51.0781 63.625
L50.5938 63.625
Q49.2188 64.3594 46.4531 65.0156
Q43.7031 65.6719 40.8281 65.6719
Q30.3281 65.6719 24.0781 59.1094
Q17.8281 52.5469 16.7969 41.3594
Q20.9062 43.8438 24.875 45.1406
Q28.8594 46.4375 34.0781 46.4375
Q38.7188 46.4375 42.25 45.5781
Q45.7969 44.7344 49.5156 42.1406
Q53.8125 39.1562 55.9844 34.6094
Q58.1562 30.0781 58.1562 23.5781
M48.25 23.1875
Q48.25 27.7344 46.9062 30.7031
Q45.5625 33.6875 42.4844 35.8906
Q40.2344 37.4531 37.5 37.9375
Q34.7656 38.4219 31.7812 38.4219
Q27.6406 38.4219 24.0781 37.4375
Q20.5156 36.4688 16.75 34.4219
Q16.6562 33.3438 16.5938 32.3438
Q16.5469 31.3438 16.5469 29.8281
Q16.5469 22.125 18.1406 17.6562
Q19.7344 13.1875 22.5156 10.5938
Q24.75 8.45312 27.3594 7.45312
Q29.9844 6.45312 33.0625 6.45312
Q40.1406 6.45312 44.1875 10.7656
Q48.25 15.0938 48.25 23.1875" id="Verdana-36"/>
      </defs>
      <g transform="translate(249.18625 263.5984375)scale(0.1 -0.1)">
       <use xlink:href="#Verdana-36"/>
       <use x="63.57421875" xlink:href="#Verdana-30"/>
      </g>
     </g>
    </g>
    <g id="xtick_5">
     <g id="line2d_11">
      <g>
       <use style="stroke:#000000;stroke-width:0.5;" x="321.84" xlink:href="#m93b0483c22" y="252.0"/>
      </g>
     </g>
     <g id="line2d_12">
      <g>
       <use style="stroke:#000000;stroke-width:0.5;" x="321.84" xlink:href="#m741efc42ff" y="28.8"/>
      </g>
     </g>
     <g id="text_5">
      <!-- 80 -->
      <defs>
       <path d="
M57.625 20.2656
Q57.625 10.8438 50.2656 4.59375
Q42.9219 -1.65625 31.7812 -1.65625
Q19.9688 -1.65625 12.9531 4.4375
Q5.95312 10.5469 5.95312 20.0625
Q5.95312 26.125 9.46875 31.0312
Q12.9844 35.9375 19.3906 38.8125
L19.3906 39.1094
Q13.5312 42.2344 10.7188 45.9375
Q7.90625 49.6562 7.90625 55.2188
Q7.90625 63.4219 14.6406 68.8906
Q21.3906 74.3594 31.7812 74.3594
Q42.6719 74.3594 49.1719 69.1406
Q55.6719 63.9219 55.6719 55.8594
Q55.6719 50.9219 52.5938 46.1562
Q49.5156 41.4062 43.5625 38.7188
L43.5625 38.4219
Q50.3906 35.5 54 31.2031
Q57.625 26.9062 57.625 20.2656
M46.0469 55.7656
Q46.0469 60.9844 42.0156 64.0781
Q37.9844 67.1875 31.7344 67.1875
Q25.5938 67.1875 21.6562 64.25
Q17.7188 61.3281 17.7188 56.3438
Q17.7188 52.8281 19.7031 50.2656
Q21.6875 47.7031 25.6875 45.7031
Q27.4844 44.8281 30.875 43.4062
Q34.2812 42 37.5 41.0625
Q42.3281 44.2812 44.1875 47.75
Q46.0469 51.2188 46.0469 55.7656
M47.5625 19.3438
Q47.5625 23.8281 45.5781 26.5312
Q43.6094 29.25 37.8438 31.9844
Q35.5469 33.0625 32.8125 33.9844
Q30.0781 34.9062 25.5312 36.5781
Q21.1406 34.1875 18.4844 30.0781
Q15.8281 25.9844 15.8281 20.7969
Q15.8281 14.2031 20.3594 9.90625
Q24.9062 5.60938 31.8906 5.60938
Q39.0156 5.60938 43.2812 9.26562
Q47.5625 12.9375 47.5625 19.3438" id="Verdana-38"/>
      </defs>
      <g transform="translate(316.10953125 263.5984375)scale(0.1 -0.1)">
       <use xlink:href="#Verdana-38"/>
       <use x="63.57421875" xlink:href="#Verdana-30"/>
      </g>
     </g>
    </g>
    <g id="xtick_6">
     <g id="line2d_13">
      <g>
       <use style="stroke:#000000;stroke-width:0.5;" x="388.8" xlink:href="#m93b0483c22" y="252.0"/>
      </g>
     </g>
     <g id="line2d_14">
      <g>
       <use style="stroke:#000000;stroke-width:0.5;" x="388.8" xlink:href="#m741efc42ff" y="28.8"/>
      </g>
     </g>
     <g id="text_6">
      <!-- 100 -->
      <defs>
       <path d="
M52.9375 0
L13.5781 0
L13.5781 7.42188
L28.7188 7.42188
L28.7188 56.1562
L13.5781 56.1562
L13.5781 62.7969
Q16.6562 62.7969 20.1719 63.2969
Q23.6875 63.8125 25.4844 64.7969
Q27.7344 66.0156 29.0312 67.8906
Q30.3281 69.7812 30.5156 72.9531
L38.0938 72.9531
L38.0938 7.42188
L52.9375 7.42188
z
" id="Verdana-31"/>
      </defs>
      <g transform="translate(380.271875 263.5984375)scale(0.1 -0.1)">
       <use xlink:href="#Verdana-31"/>
       <use x="63.57421875" xlink:href="#Verdana-30"/>
       <use x="127.1484375" xlink:href="#Verdana-30"/>
      </g>
     </g>
    </g>
   </g>
   <g id="matplotlib.axis_2">
    <g id="ytick_1">
     <g id="line2d_15">
      <defs>
       <path d="
M0 0
L4 0" id="m728421d6d4" style="stroke:#000000;stroke-width:0.5;"/>
      </defs>
      <g>
       <use style="stroke:#000000;stroke-width:0.5;" x="54.0" xlink:href="#m728421d6d4" y="252.0"/>
      </g>
     </g>
     <g id="line2d_16">
      <defs>
       <path d="
M0 0
L-4 0" id="mcb0005524f" style="stroke:#000000;stroke-width:0.5;"/>
      </defs>
      <g>
       <use style="stroke:#000000;stroke-width:0.5;" x="388.8" xlink:href="#mcb0005524f" y="252.0"/>
      </g>
     </g>
     <g id="text_7">
      <!-- 0.00 -->
      <defs>
       <path d="
M24.0312 0
L12.3594 0
L12.3594 13.9219
L24.0312 13.9219
z
" id="Verdana-2e"/>
      </defs>
      <g transform="translate(28.6171875 254.79296875)scale(0.1 -0.1)">
       <use xlink:href="#Verdana-30"/>
       <use x="63.57421875" xlink:href="#Verdana-2e"/>
       <use x="99.951171875" xlink:href="#Verdana-30"/>
       <use x="163.525390625" xlink:href="#Verdana-30"/>
      </g>
     </g>
    </g>
    <g id="ytick_2">
     <g id="line2d_17">
      <g>
       <use style="stroke:#000000;stroke-width:0.5;" x="54.0" xlink:href="#m728421d6d4" y="224.1"/>
      </g>
     </g>
     <g id="line2d_18">
      <g>
       <use style="stroke:#000000;stroke-width:0.5;" x="388.8" xlink:href="#mcb0005524f" y="224.1"/>
      </g>
     </g>
     <g id="text_8">
      <!-- 0.01 -->
      <g transform="translate(29.021875 226.89296875)scale(0.1 -0.1)">
       <use xlink:href="#Verdana-30"/>
       <use x="63.57421875" xlink:href="#Verdana-2e"/>
       <use x="99.951171875" xlink:href="#Verdana-30"/>
       <use x="163.525390625" xlink:href="#Verdana-31"/>
      </g>
     </g>
    </g>
    <g id="ytick_3">
     <g id="line2d_19">
      <g>
       <use style="stroke:#000000;stroke-width:0.5;" x="54.0" xlink:href="#m728421d6d4" y="196.2"/>
      </g>
     </g>
     <g id="line2d_20">
      <g>
       <use style="stroke:#000000;stroke-width:0.5;" x="388.8" xlink:href="#mcb0005524f" y="196.2"/>
      </g>
     </g>
     <g id="text_9">
      <!-- 0.02 -->
      <g transform="translate(28.6078125 198.99296875)scale(0.1 -0.1)">
       <use xlink:href="#Verdana-30"/>
       <use x="63.57421875" xlink:href="#Verdana-2e"/>
       <use x="99.951171875" xlink:href="#Verdana-30"/>
       <use x="163.525390625" xlink:href="#Verdana-32"/>
      </g>
     </g>
    </g>
    <g id="ytick_4">
     <g id="line2d_21">
      <g>
       <use style="stroke:#000000;stroke-width:0.5;" x="54.0" xlink:href="#m728421d6d4" y="168.3"/>
      </g>
     </g>
     <g id="line2d_22">
      <g>
       <use style="stroke:#000000;stroke-width:0.5;" x="388.8" xlink:href="#mcb0005524f" y="168.3"/>
      </g>
     </g>
     <g id="text_10">
      <!-- 0.03 -->
      <defs>
       <path d="
M50.6875 35.0156
Q53.0312 32.9062 54.5469 29.7344
Q56.0625 26.5625 56.0625 21.5312
Q56.0625 16.5469 54.25 12.3906
Q52.4375 8.25 49.1719 5.17188
Q45.5156 1.76562 40.5469 0.125
Q35.5938 -1.51562 29.6875 -1.51562
Q23.6406 -1.51562 17.7812 -0.0625
Q11.9219 1.375 8.15625 3.07812
L8.15625 13.2812
L8.89062 13.2812
Q13.0312 10.5469 18.6406 8.73438
Q24.2656 6.9375 29.5 6.9375
Q32.5625 6.9375 36.0312 7.95312
Q39.5 8.98438 41.6562 10.9844
Q43.8906 13.1406 44.9844 15.7188
Q46.0938 18.3125 46.0938 22.2656
Q46.0938 26.1719 44.8438 28.7344
Q43.6094 31.2969 41.4062 32.7656
Q39.2031 34.2812 36.0781 34.8438
Q32.9531 35.4062 29.3438 35.4062
L24.9531 35.4062
L24.9531 43.5
L28.375 43.5
Q35.7969 43.5 40.2031 46.5938
Q44.625 49.7031 44.625 55.6719
Q44.625 58.2969 43.5 60.2656
Q42.3906 62.25 40.375 63.5312
Q38.2812 64.7969 35.8906 65.2812
Q33.5 65.7656 30.4688 65.7656
Q25.8281 65.7656 20.5938 64.1094
Q15.375 62.4531 10.75 59.4219
L10.25 59.4219
L10.25 69.625
Q13.7188 71.3438 19.5 72.7812
Q25.2969 74.2188 30.7188 74.2188
Q36.0312 74.2188 40.0781 73.2344
Q44.1406 72.2656 47.4062 70.125
Q50.9219 67.7812 52.7344 64.4531
Q54.5469 61.1406 54.5469 56.6875
Q54.5469 50.6406 50.2656 46.125
Q46 41.6094 40.1875 40.4375
L40.1875 39.75
Q42.5312 39.3594 45.5469 38.1094
Q48.5781 36.8594 50.6875 35.0156" id="Verdana-33"/>
      </defs>
      <g transform="translate(28.709375 171.09296875)scale(0.1 -0.1)">
       <use xlink:href="#Verdana-30"/>
       <use x="63.57421875" xlink:href="#Verdana-2e"/>
       <use x="99.951171875" xlink:href="#Verdana-30"/>
       <use x="163.525390625" xlink:href="#Verdana-33"/>
      </g>
     </g>
    </g>
    <g id="ytick_5">
     <g id="line2d_23">
      <g>
       <use style="stroke:#000000;stroke-width:0.5;" x="54.0" xlink:href="#m728421d6d4" y="140.4"/>
      </g>
     </g>
     <g id="line2d_24">
      <g>
       <use style="stroke:#000000;stroke-width:0.5;" x="388.8" xlink:href="#mcb0005524f" y="140.4"/>
      </g>
     </g>
     <g id="text_11">
      <!-- 0.04 -->
      <g transform="translate(28.4421875 143.19296875)scale(0.1 -0.1)">
       <use xlink:href="#Verdana-30"/>
       <use x="63.57421875" xlink:href="#Verdana-2e"/>
       <use x="99.951171875" xlink:href="#Verdana-30"/>
       <use x="163.525390625" xlink:href="#Verdana-34"/>
      </g>
     </g>
    </g>
    <g id="ytick_6">
     <g id="line2d_25">
      <g>
       <use style="stroke:#000000;stroke-width:0.5;" x="54.0" xlink:href="#m728421d6d4" y="112.5"/>
      </g>
     </g>
     <g id="line2d_26">
      <g>
       <use style="stroke:#000000;stroke-width:0.5;" x="388.8" xlink:href="#mcb0005524f" y="112.5"/>
      </g>
     </g>
     <g id="text_12">
      <!-- 0.05 -->
      <defs>
       <path d="
M56.5 23.0938
Q56.5 18.0156 54.6406 13.375
Q52.7812 8.73438 49.5625 5.5625
Q46.0469 2.15625 41.1875 0.3125
Q36.3281 -1.51562 29.9375 -1.51562
Q23.9688 -1.51562 18.4531 -0.265625
Q12.9375 0.984375 9.125 2.73438
L9.125 13.0312
L9.8125 13.0312
Q13.8125 10.5 19.1875 8.71875
Q24.5625 6.9375 29.7344 6.9375
Q33.2031 6.9375 36.4531 7.90625
Q39.7031 8.89062 42.2344 11.3281
Q44.3906 13.4219 45.4844 16.3438
Q46.5781 19.2812 46.5781 23.1406
Q46.5781 26.9062 45.2812 29.4844
Q44 32.0781 41.7031 33.6406
Q39.1562 35.5 35.5156 36.25
Q31.8906 37.0156 27.3906 37.0156
Q23.0938 37.0156 19.1094 36.4219
Q15.1406 35.8438 12.25 35.25
L12.25 72.7031
L56 72.7031
L56 64.1562
L21.6875 64.1562
L21.6875 44.8281
Q23.7812 45.0156 25.9688 45.1094
Q28.1719 45.2188 29.7812 45.2188
Q35.6875 45.2188 40.125 44.2188
Q44.5781 43.2188 48.2969 40.6719
Q52.2031 37.9844 54.3438 33.7344
Q56.5 29.5 56.5 23.0938" id="Verdana-35"/>
      </defs>
      <g transform="translate(28.665625 115.29296875)scale(0.1 -0.1)">
       <use xlink:href="#Verdana-30"/>
       <use x="63.57421875" xlink:href="#Verdana-2e"/>
       <use x="99.951171875" xlink:href="#Verdana-30"/>
       <use x="163.525390625" xlink:href="#Verdana-35"/>
      </g>
     </g>
    </g>
    <g id="ytick_7">
     <g id="line2d_27">
      <g>
       <use style="stroke:#000000;stroke-width:0.5;" x="54.0" xlink:href="#m728421d6d4" y="84.6"/>
      </g>
     </g>
     <g id="line2d_28">
      <g>
       <use style="stroke:#000000;stroke-width:0.5;" x="388.8" xlink:href="#mcb0005524f" y="84.6"/>
      </g>
     </g>
     <g id="text_13">
      <!-- 0.06 -->
      <g transform="translate(28.5 87.39296875)scale(0.1 -0.1)">
       <use xlink:href="#Verdana-30"/>
       <use x="63.57421875" xlink:href="#Verdana-2e"/>
       <use x="99.951171875" xlink:href="#Verdana-30"/>
       <use x="163.525390625" xlink:href="#Verdana-36"/>
      </g>
     </g>
    </g>
    <g id="ytick_8">
     <g id="line2d_29">
      <g>
       <use style="stroke:#000000;stroke-width:0.5;" x="54.0" xlink:href="#m728421d6d4" y="56.7"/>
      </g>
     </g>
     <g id="line2d_30">
      <g>
       <use style="stroke:#000000;stroke-width:0.5;" x="388.8" xlink:href="#mcb0005524f" y="56.7"/>
      </g>
     </g>
     <g id="text_14">
      <!-- 0.07 -->
      <defs>
       <path d="
M57.2812 61.8125
L24.3594 0
L13.9219 0
L48.9219 64.1562
L7.51562 64.1562
L7.51562 72.7031
L57.2812 72.7031
z
" id="Verdana-37"/>
      </defs>
      <g transform="translate(28.5875 59.49296875)scale(0.1 -0.1)">
       <use xlink:href="#Verdana-30"/>
       <use x="63.57421875" xlink:href="#Verdana-2e"/>
       <use x="99.951171875" xlink:href="#Verdana-30"/>
       <use x="163.525390625" xlink:href="#Verdana-37"/>
      </g>
     </g>
    </g>
    <g id="ytick_9">
     <g id="line2d_31">
      <g>
       <use style="stroke:#000000;stroke-width:0.5;" x="54.0" xlink:href="#m728421d6d4" y="28.8"/>
      </g>
     </g>
     <g id="line2d_32">
      <g>
       <use style="stroke:#000000;stroke-width:0.5;" x="388.8" xlink:href="#mcb0005524f" y="28.8"/>
      </g>
     </g>
     <g id="text_15">
      <!-- 0.08 -->
      <g transform="translate(28.553125 31.59296875)scale(0.1 -0.1)">
       <use xlink:href="#Verdana-30"/>
       <use x="63.57421875" xlink:href="#Verdana-2e"/>
       <use x="99.951171875" xlink:href="#Verdana-30"/>
       <use x="163.525390625" xlink:href="#Verdana-38"/>
      </g>
     </g>
    </g>
   </g>
   <g id="patch_3">
    <path d="
M54 28.8
L388.8 28.8" style="fill:none;stroke:#000000;"/>
   </g>
   <g id="patch_4">
    <path d="
M388.8 252
L388.8 28.8" style="fill:none;stroke:#000000;"/>
   </g>
   <g id="patch_5">
    <path d="
M54 252
L388.8 252" style="fill:none;stroke:#000000;"/>
   </g>
   <g id="patch_6">
    <path d="
M54 252
L54 28.8" style="fill:none;stroke:#000000;"/>
   </g>
   <g id="text_16">
    <!-- Small $k_i k_j$ -->
    <defs>
     <path d="
M-1.3125 -14.2031
Q-1.3125 -11.7656 0.359375 -9.98438
Q2.04688 -8.20312 4.5 -8.20312
Q6.10938 -8.20312 7.20312 -9.20312
Q8.29688 -10.2031 8.29688 -11.8125
Q8.29688 -13.7188 7.09375 -15.25
Q5.90625 -16.7969 4.10938 -17.2812
Q5.85938 -17.9219 7.625 -17.9219
Q11.8594 -17.9219 14.9844 -13.9844
Q18.1094 -10.0625 19.3906 -5.17188
L28.8125 32.4219
Q29.5 35.2969 29.5 37.3125
Q29.5 41.6094 26.5156 41.6094
Q22.125 41.6094 18.8281 37.625
Q15.5312 33.6406 13.4844 28.4219
Q13.2812 27.7812 12.7031 27.7812
L11.5312 27.7812
Q10.6875 27.7812 10.6875 28.7188
L10.6875 29
Q12.9375 35.0156 17.0781 39.5938
Q21.2344 44.1875 26.7031 44.1875
Q30.8594 44.1875 33.5156 41.5938
Q36.1875 39.0156 36.1875 35.0156
Q36.1875 33.5938 35.8906 32.1719
L26.4219 -5.8125
Q25.3906 -9.85938 22.5 -13.2344
Q19.625 -16.6094 15.625 -18.5625
Q11.625 -20.5156 7.42188 -20.5156
Q4.04688 -20.5156 1.35938 -18.8906
Q-1.3125 -17.2812 -1.3125 -14.2031
M30.3281 60.5938
Q30.3281 62.7969 32.0312 64.4531
Q33.7344 66.1094 35.8906 66.1094
Q37.5938 66.1094 38.6875 65.0625
Q39.7969 64.0156 39.7969 62.4062
Q39.7969 60.1562 38.0156 58.4688
Q36.2344 56.7812 34.0781 56.7812
Q32.4688 56.7812 31.3906 57.9062
Q30.3281 59.0312 30.3281 60.5938" id="Cmmi10-6a"/>
     <path d="
M5.32812 1.8125
Q5.32812 2.39062 5.42188 2.6875
L19.9219 60.5
Q20.3125 62.2031 20.4062 63.1875
Q20.4062 64.7969 13.9219 64.7969
Q12.8906 64.7969 12.8906 66.1094
Q12.9375 66.3594 13.1094 66.9844
Q13.2812 67.625 13.5469 67.9688
Q13.8125 68.3125 14.3125 68.3125
L27.7812 69.3906
L28.0781 69.3906
Q28.0781 69.2812 28.4219 69.1094
Q28.7656 68.9531 28.8125 68.8906
Q29 68.4062 29 68.1094
L18.5 26.3125
Q22.125 27.8281 27.6094 33.5156
Q33.1094 39.2031 36.2031 41.6875
Q39.3125 44.1875 44 44.1875
Q46.7812 44.1875 48.7344 42.2812
Q50.6875 40.375 50.6875 37.5938
Q50.6875 35.8438 49.9531 34.3438
Q49.2188 32.8594 47.8906 31.9219
Q46.5781 31 44.8281 31
Q43.2188 31 42.1094 32
Q41.0156 33.0156 41.0156 34.625
Q41.0156 37.0156 42.7031 38.6406
Q44.3906 40.2812 46.7812 40.2812
Q45.7969 41.6094 43.7969 41.6094
Q40.8281 41.6094 38.0625 39.8906
Q35.2969 38.1875 32.0938 34.9844
Q28.9062 31.7812 26.2656 29.125
Q23.6406 26.4688 21.3906 25.0938
Q27.2969 24.4219 31.6406 22
Q35.9844 19.5781 35.9844 14.5938
Q35.9844 13.5781 35.5938 12.0156
Q34.7188 8.25 34.7188 6
Q34.7188 1.51562 37.7969 1.51562
Q41.4062 1.51562 43.2812 5.46875
Q45.1719 9.42188 46.3906 14.7031
Q46.5781 15.2812 47.2188 15.2812
L48.3906 15.2812
Q48.7812 15.2812 49.0469 15.0312
Q49.3125 14.7969 49.3125 14.4062
Q49.3125 14.3125 49.2188 14.1094
Q45.4531 -1.125 37.5938 -1.125
Q34.7656 -1.125 32.5938 0.1875
Q30.4219 1.51562 29.25 3.78125
Q28.0781 6.0625 28.0781 8.89062
Q28.0781 10.5 28.5156 12.2031
Q28.8125 13.375 28.8125 14.4062
Q28.8125 18.2656 25.3906 20.2656
Q21.9688 22.2656 17.5781 22.7031
L12.5 2.29688
Q12.1094 0.78125 10.9844 -0.171875
Q9.85938 -1.125 8.40625 -1.125
Q7.125 -1.125 6.21875 -0.265625
Q5.32812 0.59375 5.32812 1.8125" id="Cmmi10-6b"/>
     <path d="
M41.5 14.3125
L41.5 25.7344
Q37.9375 25.4375 33.7812 24.9219
Q29.6406 24.4219 27.4844 23.7344
Q24.8594 22.9062 23.4688 21.3125
Q22.0781 19.7344 22.0781 17.1406
Q22.0781 15.4375 22.3594 14.3594
Q22.6562 13.2812 23.8281 12.3125
Q24.9531 11.3281 26.5156 10.8594
Q28.0781 10.4062 31.3906 10.4062
Q34.0312 10.4062 36.7344 11.4688
Q39.4531 12.5469 41.5 14.3125
M41.5 5.8125
Q40.0938 4.73438 37.9844 3.21875
Q35.8906 1.70312 34.0312 0.828125
Q31.4531 -0.34375 28.6562 -0.90625
Q25.875 -1.46875 22.5625 -1.46875
Q14.75 -1.46875 9.46875 3.35938
Q4.20312 8.20312 4.20312 15.7188
Q4.20312 21.7344 6.89062 25.5312
Q9.57812 29.3438 14.5 31.5469
Q19.3906 33.7344 26.6094 34.6562
Q33.8438 35.5938 41.6094 36.0312
L41.6094 36.3281
Q41.6094 40.875 37.8906 42.6094
Q34.1875 44.3438 26.9531 44.3438
Q22.6094 44.3438 17.6719 42.7969
Q12.75 41.2656 10.5938 40.4375
L8.98438 40.4375
L8.98438 53.6562
Q11.7656 54.3906 18.0312 55.3906
Q24.3125 56.3906 30.6094 56.3906
Q45.6094 56.3906 52.2656 51.7812
Q58.9375 47.1719 58.9375 37.3125
L58.9375 0
L41.5 0
z
" id="Verdana-Bold-61"/>
     <path id="Verdana-Bold-20"/>
     <path d="
M67.4844 22.8594
Q67.4844 12.1094 58.375 5.39062
Q49.2656 -1.3125 33.6406 -1.3125
Q24.6094 -1.3125 17.8906 0.265625
Q11.1875 1.85938 5.32812 4.29688
L5.32812 21.7344
L7.375 21.7344
Q13.1875 17.0938 20.3906 14.5938
Q27.5938 12.1094 34.2344 12.1094
Q35.9375 12.1094 38.7188 12.4062
Q41.5 12.7031 43.2656 13.375
Q45.4062 14.2656 46.7969 15.5781
Q48.1875 16.8906 48.1875 19.4844
Q48.1875 21.875 46.1562 23.6094
Q44.1406 25.3438 40.2344 26.2656
Q36.1406 27.25 31.5625 28.0938
Q27 28.9531 23 30.2812
Q13.8125 33.25 9.78125 38.3438
Q5.76562 43.4531 5.76562 51.0312
Q5.76562 61.1875 14.8594 67.6094
Q23.9688 74.0312 38.2812 74.0312
Q45.4531 74.0312 52.4531 72.625
Q59.4688 71.2344 64.5938 69.1406
L64.5938 52.3906
L62.5938 52.3906
Q58.2031 55.9062 51.8281 58.2656
Q45.4531 60.6406 38.8125 60.6406
Q36.4688 60.6406 34.1562 60.3281
Q31.8438 60.0156 29.6875 59.125
Q27.7812 58.4062 26.4062 56.9062
Q25.0469 55.4219 25.0469 53.5156
Q25.0469 50.6406 27.2344 49.0938
Q29.4375 47.5625 35.5469 46.2969
Q39.5469 45.4531 43.2344 44.6719
Q46.9219 43.8906 51.1719 42.5312
Q59.5156 39.7969 63.5 35.0781
Q67.4844 30.375 67.4844 22.8594" id="Verdana-Bold-53"/>
     <path d="
M61.9219 38.875
L61.9219 0
L44.2344 0
L44.2344 27.3906
Q44.2344 31.3906 44.0312 34.2031
Q43.8438 37.0156 42.9688 38.7656
Q42.0938 40.5312 40.3125 41.3281
Q38.5312 42.1406 35.2969 42.1406
Q32.7188 42.1406 30.2656 41.0938
Q27.8281 40.0469 25.875 38.875
L25.875 0
L8.29688 0
L8.29688 54.8281
L25.875 54.8281
L25.875 48.7812
Q30.4219 52.3438 34.5625 54.3438
Q38.7188 56.3438 43.75 56.3438
Q49.1719 56.3438 53.3125 53.9219
Q57.4688 51.5156 59.8125 46.8281
Q65.0938 51.2656 70.0625 53.7969
Q75.0469 56.3438 79.8281 56.3438
Q88.7188 56.3438 93.3281 51.0156
Q97.9531 45.7031 97.9531 35.6875
L97.9531 0
L80.2812 0
L80.2812 27.3906
Q80.2812 31.4531 80.1094 34.2344
Q79.9375 37.0156 79.0469 38.7656
Q78.2188 40.5312 76.4062 41.3281
Q74.6094 42.1406 71.3438 42.1406
Q69.1406 42.1406 67.0312 41.375
Q64.9375 40.625 61.9219 38.875" id="Verdana-Bold-6d"/>
     <path d="
M25.875 0
L8.29688 0
L8.29688 75.9844
L25.875 75.9844
z
" id="Verdana-Bold-6c"/>
     <path d="
M7.8125 7.17188
Q7.8125 9.03125 8.59375 11.0781
L16.7031 32.625
Q18.0156 36.2812 18.0156 38.625
Q18.0156 41.6094 15.8281 41.6094
Q11.8594 41.6094 9.29688 37.5312
Q6.73438 33.4531 5.51562 28.4219
Q5.32812 27.7812 4.6875 27.7812
L3.51562 27.7812
Q2.6875 27.7812 2.6875 28.7188
L2.6875 29
Q4.29688 34.9688 7.60938 39.5781
Q10.9375 44.1875 16.0156 44.1875
Q19.5781 44.1875 22.0469 41.8438
Q24.5156 39.5 24.5156 35.8906
Q24.5156 34.0312 23.6875 31.9844
L15.5781 10.5
Q14.2031 7.17188 14.2031 4.5
Q14.2031 1.51562 16.5 1.51562
Q20.4062 1.51562 23.0156 5.6875
Q25.6406 9.85938 26.7031 14.7031
Q26.9062 15.2812 27.4844 15.2812
L28.7188 15.2812
Q29.1094 15.2812 29.3438 15.0156
Q29.5938 14.75 29.5938 14.4062
Q29.5938 14.3125 29.5 14.1094
Q28.125 8.45312 24.7344 3.65625
Q21.3438 -1.125 16.3125 -1.125
Q12.7969 -1.125 10.2969 1.29688
Q7.8125 3.71875 7.8125 7.17188
M19.0938 60.5938
Q19.0938 62.7031 20.8438 64.4062
Q22.6094 66.1094 24.7031 66.1094
Q26.4219 66.1094 27.5156 65.0625
Q28.6094 64.0156 28.6094 62.4062
Q28.6094 60.1562 26.8281 58.4688
Q25.0469 56.7812 22.9062 56.7812
Q21.2969 56.7812 20.1875 57.875
Q19.0938 58.9844 19.0938 60.5938" id="Cmmi10-69"/>
    </defs>
    <g style="fill:#444444;" transform="translate(171.18 56.7)scale(0.15 -0.15)">
     <use transform="translate(0.0 0.015625)" xlink:href="#Verdana-Bold-53"/>
     <use transform="translate(71.044921875 0.015625)" xlink:href="#Verdana-Bold-6d"/>
     <use transform="translate(176.85546875 0.015625)" xlink:href="#Verdana-Bold-61"/>
     <use transform="translate(243.65234375 0.015625)" xlink:href="#Verdana-Bold-6c"/>
     <use transform="translate(277.83203125 0.015625)" xlink:href="#Verdana-Bold-6c"/>
     <use transform="translate(312.01171875 0.015625)" xlink:href="#Verdana-Bold-20"/>
     <use transform="translate(346.19140625 0.015625)" xlink:href="#Cmmi10-6b"/>
     <use transform="translate(398.193359375 -25.49375)scale(0.7)" xlink:href="#Cmmi10-69"/>
     <use transform="translate(432.6171875 0.015625)" xlink:href="#Cmmi10-6b"/>
     <use transform="translate(484.619140625 -25.49375)scale(0.7)" xlink:href="#Cmmi10-6a"/>
    </g>
   </g>
   <g id="text_17">
    <!-- Large $k_i k_j$ -->
    <defs>
     <path d="
M61.7188 0
L9.28125 0
L9.28125 72.7031
L28.0312 72.7031
L28.0312 14.0625
L61.7188 14.0625
z
" id="Verdana-Bold-4c"/>
     <path d="
M48.0469 38.0938
L46.4844 38.0938
Q45.3594 38.4844 42.8594 38.6719
Q40.375 38.875 38.7188 38.875
Q34.9688 38.875 32.0781 38.375
Q29.2031 37.8906 25.875 36.7188
L25.875 0
L8.29688 0
L8.29688 54.8281
L25.875 54.8281
L25.875 46.7812
Q31.6875 51.7656 35.9844 53.3906
Q40.2812 55.0312 43.8906 55.0312
Q44.8281 55.0312 46 54.9844
Q47.1719 54.9375 48.0469 54.8281
z
" id="Verdana-Bold-72"/>
     <path d="
M61.625 6.29688
Q61.625 -1.42188 59.4219 -6.6875
Q57.2344 -11.9688 53.2656 -14.9375
Q49.3125 -17.9688 43.7188 -19.3125
Q38.1406 -20.6562 31.1094 -20.6562
Q25.3906 -20.6562 19.8438 -19.9688
Q14.3125 -19.2812 10.25 -18.3125
L10.25 -4.59375
L12.4062 -4.59375
Q15.625 -5.85938 20.2656 -6.90625
Q24.9062 -7.95312 28.5625 -7.95312
Q33.4531 -7.95312 36.5 -7.04688
Q39.5469 -6.15625 41.1562 -4.5
Q42.6719 -2.9375 43.3594 -0.484375
Q44.0469 1.95312 44.0469 5.375
L44.0469 6.39062
Q40.875 3.8125 37.0156 2.29688
Q33.1562 0.78125 28.4219 0.78125
Q16.8906 0.78125 10.6406 7.71875
Q4.39062 14.6562 4.39062 28.8125
Q4.39062 35.5938 6.29688 40.5156
Q8.20312 45.4531 11.6719 49.125
Q14.8906 52.5469 19.5938 54.4375
Q24.3125 56.3438 29.25 56.3438
Q33.6875 56.3438 37.3281 55.2969
Q40.9688 54.25 43.9531 52.3906
L44.5781 54.8281
L61.625 54.8281
z

M44.0469 17.2812
L44.0469 42.1406
Q42.5312 42.7812 40.3281 43.1406
Q38.1406 43.5 36.375 43.5
Q29.4375 43.5 25.9688 39.5156
Q22.5156 35.5469 22.5156 28.4219
Q22.5156 20.5156 25.4688 17.3906
Q28.4219 14.2656 34.2344 14.2656
Q36.8594 14.2656 39.3906 15.0938
Q41.9375 15.9219 44.0469 17.2812" id="Verdana-Bold-67"/>
     <path d="
M62.3125 24.1719
L22.0781 24.1719
Q22.4688 17.7188 26.9844 14.2969
Q31.5 10.8906 40.2812 10.8906
Q45.8438 10.8906 51.0625 12.8906
Q56.2969 14.8906 59.3281 17.1875
L61.2812 17.1875
L61.2812 3.07812
Q55.3281 0.6875 50.0469 -0.390625
Q44.7812 -1.46875 38.375 -1.46875
Q21.875 -1.46875 13.0781 5.95312
Q4.29688 13.375 4.29688 27.0938
Q4.29688 40.6719 12.625 48.6094
Q20.9531 56.5469 35.4531 56.5469
Q48.8281 56.5469 55.5625 49.7812
Q62.3125 43.0156 62.3125 30.3281
z

M44.8281 34.4688
Q44.6719 39.9844 42.0781 42.7656
Q39.5 45.5625 34.0312 45.5625
Q28.9531 45.5625 25.6719 42.9219
Q22.4062 40.2812 22.0156 34.4688
z
" id="Verdana-Bold-65"/>
    </defs>
    <g style="fill:#444444;" transform="translate(254.88 112.5)scale(0.2 -0.2)">
     <use transform="translate(0.0 0.296875)" xlink:href="#Verdana-Bold-4c"/>
     <use transform="translate(63.720703125 0.296875)" xlink:href="#Verdana-Bold-61"/>
     <use transform="translate(130.517578125 0.296875)" xlink:href="#Verdana-Bold-72"/>
     <use transform="translate(180.224609375 0.296875)" xlink:href="#Verdana-Bold-67"/>
     <use transform="translate(250.146484375 0.296875)" xlink:href="#Verdana-Bold-65"/>
     <use transform="translate(316.552734375 0.296875)" xlink:href="#Verdana-Bold-20"/>
     <use transform="translate(350.732421875 0.296875)" xlink:href="#Cmmi10-6b"/>
     <use transform="translate(402.734375 -25.2125)scale(0.7)" xlink:href="#Cmmi10-69"/>
     <use transform="translate(437.158203125 0.296875)" xlink:href="#Cmmi10-6b"/>
     <use transform="translate(489.16015625 -25.2125)scale(0.7)" xlink:href="#Cmmi10-6a"/>
    </g>
   </g>
   <g id="text_18">
    <!-- Probability distribution of the weight of an  -->
    <defs>
     <path d="
M54.25 0
L45.0625 0
L45.0625 6.0625
Q40.4375 2.39062 36.1875 0.4375
Q31.9375 -1.51562 26.8125 -1.51562
Q18.2188 -1.51562 13.4219 3.73438
Q8.64062 8.98438 8.64062 19.1406
L8.64062 54.5469
L17.8281 54.5469
L17.8281 23.4844
Q17.8281 19.3438 18.2188 16.375
Q18.6094 13.4219 19.875 11.3281
Q21.1875 9.1875 23.2812 8.20312
Q25.3906 7.23438 29.3906 7.23438
Q32.9531 7.23438 37.1719 9.07812
Q41.4062 10.9375 45.0625 13.8125
L45.0625 54.5469
L54.25 54.5469
z
" id="Verdana-75"/>
     <path d="
M37.3594 0.484375
Q34.7656 -0.203125 31.7031 -0.640625
Q28.6562 -1.07812 26.2656 -1.07812
Q17.9219 -1.07812 13.5781 3.40625
Q9.23438 7.90625 9.23438 17.8281
L9.23438 46.8281
L3.03125 46.8281
L3.03125 54.5469
L9.23438 54.5469
L9.23438 70.2188
L18.4062 70.2188
L18.4062 54.5469
L37.3594 54.5469
L37.3594 46.8281
L18.4062 46.8281
L18.4062 21.9688
Q18.4062 17.6719 18.5938 15.25
Q18.7969 12.8438 19.9688 10.75
Q21.0469 8.79688 22.9219 7.89062
Q24.8125 6.98438 28.6562 6.98438
Q30.9062 6.98438 33.3438 7.64062
Q35.7969 8.29688 36.8594 8.73438
L37.3594 8.73438
z
" id="Verdana-74"/>
     <path d="
M53.2656 0
L44.0938 0
L44.0938 5.71875
Q40.1406 2.29688 35.8438 0.390625
Q31.5469 -1.51562 26.5156 -1.51562
Q16.75 -1.51562 11.0156 6
Q5.28125 13.5312 5.28125 26.8594
Q5.28125 33.7969 7.25 39.2031
Q9.23438 44.625 12.5938 48.4375
Q15.9219 52.1562 20.3281 54.1094
Q24.75 56.0625 29.5 56.0625
Q33.7969 56.0625 37.1094 55.1562
Q40.4375 54.25 44.0938 52.3438
L44.0938 75.9844
L53.2656 75.9844
z

M44.0938 13.4219
L44.0938 44.7344
Q40.375 46.3906 37.4375 47.0156
Q34.5156 47.6562 31.0625 47.6562
Q23.3438 47.6562 19.0469 42.2812
Q14.75 36.9219 14.75 27.0469
Q14.75 17.3281 18.0625 12.2812
Q21.3906 7.23438 28.7188 7.23438
Q32.625 7.23438 36.625 8.95312
Q40.625 10.6875 44.0938 13.4219" id="Verdana-64"/>
     <path d="
M54.6875 26.3125
L14.5 26.3125
Q14.5 21.2969 16.0156 17.5469
Q17.5312 13.8125 20.1719 11.4219
Q22.7031 9.07812 26.1875 7.90625
Q29.6875 6.73438 33.8906 6.73438
Q39.4531 6.73438 45.0938 8.95312
Q50.7344 11.1875 53.125 13.3281
L53.6094 13.3281
L53.6094 3.32812
Q48.9688 1.375 44.1406 0.046875
Q39.3125 -1.26562 33.9844 -1.26562
Q20.4062 -1.26562 12.7812 6.07812
Q5.17188 13.4219 5.17188 26.9531
Q5.17188 40.3281 12.4688 48.1875
Q19.7812 56.0625 31.6875 56.0625
Q42.7188 56.0625 48.7031 49.6094
Q54.6875 43.1719 54.6875 31.2969
z

M45.75 33.3438
Q45.7031 40.5781 42.1094 44.5312
Q38.5312 48.4844 31.2031 48.4844
Q23.8281 48.4844 19.4531 44.1406
Q15.0938 39.7969 14.5 33.3438
z
" id="Verdana-65"/>
     <path d="
M57.0312 27.6875
Q57.0312 20.8438 55.0938 15.375
Q53.1719 9.90625 49.9062 6.20312
Q46.4375 2.34375 42.2812 0.40625
Q38.1406 -1.51562 33.1562 -1.51562
Q28.5156 -1.51562 25.0469 -0.40625
Q21.5781 0.6875 18.2188 2.54688
L17.625 0
L9.03125 0
L9.03125 75.9844
L18.2188 75.9844
L18.2188 48.8281
Q22.0781 52 26.4219 54.0312
Q30.7656 56.0625 36.1875 56.0625
Q45.8438 56.0625 51.4375 48.6406
Q57.0312 41.2188 57.0312 27.6875
M47.5625 27.4375
Q47.5625 37.2031 44.3281 42.25
Q41.1094 47.3125 33.9375 47.3125
Q29.9375 47.3125 25.8281 45.5781
Q21.7344 43.8438 18.2188 41.1094
L18.2188 9.85938
Q22.125 8.10938 24.9219 7.42188
Q27.7344 6.73438 31.2969 6.73438
Q38.9219 6.73438 43.2344 11.7344
Q47.5625 16.75 47.5625 27.4375" id="Verdana-62"/>
     <path d="
M48 15.7188
Q48 8.25 41.8125 3.46875
Q35.6406 -1.3125 24.9531 -1.3125
Q18.8906 -1.3125 13.8438 0.125
Q8.79688 1.5625 5.375 3.26562
L5.375 13.5781
L5.85938 13.5781
Q10.2031 10.2969 15.5156 8.375
Q20.8438 6.45312 25.7344 6.45312
Q31.7812 6.45312 35.2031 8.40625
Q38.625 10.3594 38.625 14.5469
Q38.625 17.7812 36.7656 19.4375
Q34.9062 21.0938 29.6406 22.2656
Q27.6875 22.7031 24.5312 23.2812
Q21.3906 23.875 18.7969 24.5625
Q11.625 26.4688 8.60938 30.1562
Q5.60938 33.8438 5.60938 39.2031
Q5.60938 42.5781 7 45.5469
Q8.40625 48.5312 11.2344 50.875
Q13.9688 53.1719 18.1875 54.5156
Q22.4062 55.8594 27.6406 55.8594
Q32.5156 55.8594 37.5156 54.6562
Q42.5312 53.4688 45.8438 51.7656
L45.8438 41.9375
L45.3594 41.9375
Q41.8438 44.5312 36.8125 46.3125
Q31.7812 48.0938 26.9531 48.0938
Q21.9219 48.0938 18.4531 46.1562
Q14.9844 44.2344 14.9844 40.4375
Q14.9844 37.0625 17.0938 35.3594
Q19.1406 33.6406 23.7344 32.5625
Q26.2656 31.9844 29.4062 31.3906
Q32.5625 30.8125 34.6719 30.3281
Q41.0625 28.8594 44.5312 25.2969
Q48 21.6875 48 15.7188" id="Verdana-73"/>
     <path d="
M51.4219 0
L42.2812 0
L42.2812 5.8125
Q41.0625 4.98438 38.9844 3.48438
Q36.9219 2 34.9688 1.125
Q32.6719 0 29.6875 -0.75
Q26.7031 -1.51562 22.7031 -1.51562
Q15.3281 -1.51562 10.2031 3.35938
Q5.07812 8.25 5.07812 15.8281
Q5.07812 22.0156 7.73438 25.8438
Q10.4062 29.6875 15.3281 31.8906
Q20.3125 34.0781 27.2969 34.8594
Q34.2812 35.6406 42.2812 36.0312
L42.2812 37.4531
Q42.2812 40.5781 41.1875 42.625
Q40.0938 44.6719 38.0312 45.8438
Q36.0781 46.9688 33.3438 47.3594
Q30.6094 47.75 27.6406 47.75
Q24.0312 47.75 19.5781 46.7969
Q15.1406 45.8438 10.4062 44.0469
L9.90625 44.0469
L9.90625 53.375
Q12.5938 54.1094 17.6719 54.9844
Q22.75 55.8594 27.6875 55.8594
Q33.4531 55.8594 37.7188 54.9062
Q42 53.9531 45.125 51.6562
Q48.1875 49.4219 49.7969 45.8438
Q51.4219 42.2812 51.4219 37.0156
z

M42.2812 13.4219
L42.2812 28.6094
Q38.0938 28.375 32.3906 27.875
Q26.7031 27.3906 23.3906 26.4688
Q19.4375 25.3438 16.9844 22.9688
Q14.5469 20.6094 14.5469 16.4531
Q14.5469 11.7656 17.375 9.39062
Q20.2188 7.03125 26.0312 7.03125
Q30.8594 7.03125 34.8594 8.90625
Q38.875 10.7969 42.2812 13.4219" id="Verdana-61"/>
     <path d="
M53.2656 6.20312
Q53.2656 -7.67188 46.9688 -14.1562
Q40.6719 -20.6562 27.5938 -20.6562
Q23.25 -20.6562 19.1094 -20.0469
Q14.9844 -19.4375 10.9844 -18.3125
L10.9844 -8.9375
L11.4688 -8.9375
Q13.7188 -9.8125 18.5938 -11.1094
Q23.4844 -12.4062 28.375 -12.4062
Q33.0625 -12.4062 36.125 -11.2812
Q39.2031 -10.1562 40.9219 -8.15625
Q42.625 -6.25 43.3594 -3.5625
Q44.0938 -0.875 44.0938 2.4375
L44.0938 7.42188
Q39.9375 4.10938 36.1562 2.46875
Q32.375 0.828125 26.5156 0.828125
Q16.75 0.828125 11.0156 7.875
Q5.28125 14.9375 5.28125 27.7812
Q5.28125 34.8125 7.25 39.9062
Q9.23438 45.0156 12.6406 48.7344
Q15.8281 52.2031 20.3594 54.125
Q24.9062 56.0625 29.3906 56.0625
Q34.125 56.0625 37.3281 55.1094
Q40.5312 54.1562 44.0938 52.2031
L44.6719 54.5469
L53.2656 54.5469
z

M44.0938 14.9844
L44.0938 44.7344
Q40.4375 46.3906 37.2812 47.0938
Q34.125 47.7969 31 47.7969
Q23.4375 47.7969 19.0938 42.7188
Q14.75 37.6406 14.75 27.9844
Q14.75 18.7969 17.9688 14.0625
Q21.1875 9.32812 28.6562 9.32812
Q32.6719 9.32812 36.6875 10.8594
Q40.7188 12.4062 44.0938 14.9844" id="Verdana-67"/>
     <path id="Verdana-20"/>
     <path d="
M43.0625 44.5312
L42.5781 44.5312
Q40.5312 45.0156 38.5938 45.2344
Q36.6719 45.4531 34.0312 45.4531
Q29.7812 45.4531 25.8281 43.5781
Q21.875 41.7031 18.2188 38.7188
L18.2188 0
L9.03125 0
L9.03125 54.5469
L18.2188 54.5469
L18.2188 46.4844
Q23.6875 50.875 27.8594 52.7031
Q32.0312 54.5469 36.375 54.5469
Q38.7656 54.5469 39.8438 54.4219
Q40.9219 54.2969 43.0625 53.9531
z
" id="Verdana-72"/>
     <path d="
M56.2031 54.5469
L24.3594 -20.125
L14.5469 -20.125
L24.7031 2.64062
L2.98438 54.5469
L12.9375 54.5469
L29.6875 14.1094
L46.5781 54.5469
z
" id="Verdana-79"/>
     <path d="
M77.6406 54.5469
L63.4219 0
L54.9375 0
L40.9219 42.0469
L27 0
L18.5625 0
L4.20312 54.5469
L13.7656 54.5469
L23.7812 12.3125
L37.4062 54.5469
L44.9688 54.5469
L58.9375 12.3125
L68.4062 54.5469
z
" id="Verdana-77"/>
     <path d="
M54.6406 0
L45.4531 0
L45.4531 31.0625
Q45.4531 34.8125 45.0156 38.1094
Q44.5781 41.4062 43.4062 43.2656
Q42.1875 45.3125 39.8906 46.3125
Q37.5938 47.3125 33.9375 47.3125
Q30.1719 47.3125 26.0625 45.4531
Q21.9688 43.6094 18.2188 40.7188
L18.2188 0
L9.03125 0
L9.03125 75.9844
L18.2188 75.9844
L18.2188 48.4844
Q22.5156 52.0469 27.0938 54.0469
Q31.6875 56.0625 36.5312 56.0625
Q45.3594 56.0625 50 50.7344
Q54.6406 45.4062 54.6406 35.4062
z
" id="Verdana-68"/>
     <path d="
M18.8906 63.6719
L8.54688 63.6719
L8.54688 73.1875
L18.8906 73.1875
z

M18.3125 0
L9.125 0
L9.125 54.5469
L18.3125 54.5469
z
" id="Verdana-69"/>
     <path d="
M55.5156 27.25
Q55.5156 13.9219 48.6719 6.20312
Q41.8438 -1.51562 30.375 -1.51562
Q18.7969 -1.51562 11.9844 6.20312
Q5.17188 13.9219 5.17188 27.25
Q5.17188 40.5781 11.9844 48.3125
Q18.7969 56.0625 30.375 56.0625
Q41.8438 56.0625 48.6719 48.3125
Q55.5156 40.5781 55.5156 27.25
M46.0469 27.25
Q46.0469 37.8438 41.8906 42.9844
Q37.75 48.1406 30.375 48.1406
Q22.9062 48.1406 18.7812 42.9844
Q14.6562 37.8438 14.6562 27.25
Q14.6562 17 18.7969 11.6875
Q22.9531 6.39062 30.375 6.39062
Q37.7031 6.39062 41.875 11.6406
Q46.0469 16.8906 46.0469 27.25" id="Verdana-6f"/>
     <path d="
M38.375 67.0938
L37.8906 67.0938
Q36.375 67.5312 33.9375 67.9844
Q31.5 68.4531 29.6406 68.4531
Q23.7344 68.4531 21.0625 65.8438
Q18.4062 63.2344 18.4062 56.3906
L18.4062 54.5469
L34.9688 54.5469
L34.9688 46.8281
L18.7031 46.8281
L18.7031 0
L9.51562 0
L9.51562 46.8281
L3.32812 46.8281
L3.32812 54.5469
L9.51562 54.5469
L9.51562 56.3438
Q9.51562 66.0625 14.3438 71.2656
Q19.1875 76.4688 28.3281 76.4688
Q31.3906 76.4688 33.8594 76.1719
Q36.3281 75.875 38.375 75.4844
z
" id="Verdana-66"/>
     <path d="
M54.6406 0
L45.4531 0
L45.4531 31.0625
Q45.4531 34.8125 45.0156 38.1094
Q44.5781 41.4062 43.4062 43.2656
Q42.1875 45.3125 39.8906 46.3125
Q37.5938 47.3125 33.9375 47.3125
Q30.1719 47.3125 26.0625 45.4531
Q21.9688 43.6094 18.2188 40.7188
L18.2188 0
L9.03125 0
L9.03125 54.5469
L18.2188 54.5469
L18.2188 48.4844
Q22.5156 52.0469 27.0938 54.0469
Q31.6875 56.0625 36.5312 56.0625
Q45.3594 56.0625 50 50.7344
Q54.6406 45.4062 54.6406 35.4062
z
" id="Verdana-6e"/>
     <path d="
M18.3125 0
L9.125 0
L9.125 75.9844
L18.3125 75.9844
z
" id="Verdana-6c"/>
     <path d="
M57.3281 50.7344
Q57.3281 45.9062 55.6406 41.7656
Q53.9531 37.6406 50.9219 34.625
Q47.1719 30.8594 42.0469 28.9688
Q36.9219 27.0938 29.1094 27.0938
L19.4375 27.0938
L19.4375 0
L9.76562 0
L9.76562 72.7031
L29.5 72.7031
Q36.0312 72.7031 40.5781 71.6094
Q45.125 70.5156 48.6406 68.1719
Q52.7812 65.375 55.0469 61.2188
Q57.3281 57.0781 57.3281 50.7344
M47.2656 50.4844
Q47.2656 54.25 45.9375 57.0312
Q44.625 59.8125 41.9375 61.5781
Q39.5938 63.0938 36.5938 63.75
Q33.5938 64.4062 29 64.4062
L19.4375 64.4062
L19.4375 35.3594
L27.5938 35.3594
Q33.4531 35.3594 37.1094 36.4062
Q40.7656 37.4531 43.0625 39.75
Q45.3594 42.0938 46.3125 44.6719
Q47.2656 47.2656 47.2656 50.4844" id="Verdana-50"/>
    </defs>
    <g transform="translate(94.801875 10.367875)scale(0.12 -0.12)">
     <use xlink:href="#Verdana-50"/>
     <use x="60.302734375" xlink:href="#Verdana-72"/>
     <use x="102.978515625" xlink:href="#Verdana-6f"/>
     <use x="163.671875" xlink:href="#Verdana-62"/>
     <use x="225.9765625" xlink:href="#Verdana-61"/>
     <use x="286.03515625" xlink:href="#Verdana-62"/>
     <use x="348.33984375" xlink:href="#Verdana-69"/>
     <use x="375.78125" xlink:href="#Verdana-6c"/>
     <use x="403.22265625" xlink:href="#Verdana-69"/>
     <use x="430.6640625" xlink:href="#Verdana-74"/>
     <use x="469.568359375" xlink:href="#Verdana-79"/>
     <use x="528.748046875" xlink:href="#Verdana-20"/>
     <use x="563.904296875" xlink:href="#Verdana-64"/>
     <use x="626.208984375" xlink:href="#Verdana-69"/>
     <use x="653.650390625" xlink:href="#Verdana-73"/>
     <use x="705.75" xlink:href="#Verdana-74"/>
     <use x="745.154296875" xlink:href="#Verdana-72"/>
     <use x="787.830078125" xlink:href="#Verdana-69"/>
     <use x="815.271484375" xlink:href="#Verdana-62"/>
     <use x="877.576171875" xlink:href="#Verdana-75"/>
     <use x="940.857421875" xlink:href="#Verdana-74"/>
     <use x="980.26171875" xlink:href="#Verdana-69"/>
     <use x="1007.703125" xlink:href="#Verdana-6f"/>
     <use x="1068.39648438" xlink:href="#Verdana-6e"/>
     <use x="1131.67773438" xlink:href="#Verdana-20"/>
     <use x="1166.83398438" xlink:href="#Verdana-6f"/>
     <use x="1227.52734375" xlink:href="#Verdana-66"/>
     <use x="1262.68359375" xlink:href="#Verdana-20"/>
     <use x="1297.83984375" xlink:href="#Verdana-74"/>
     <use x="1337.24414062" xlink:href="#Verdana-68"/>
     <use x="1400.52539062" xlink:href="#Verdana-65"/>
     <use x="1460.09570312" xlink:href="#Verdana-20"/>
     <use x="1495.25195312" xlink:href="#Verdana-77"/>
     <use x="1577.08789062" xlink:href="#Verdana-65"/>
     <use x="1636.65820312" xlink:href="#Verdana-69"/>
     <use x="1664.09960938" xlink:href="#Verdana-67"/>
     <use x="1726.40429688" xlink:href="#Verdana-68"/>
     <use x="1789.68554688" xlink:href="#Verdana-74"/>
     <use x="1829.08984375" xlink:href="#Verdana-20"/>
     <use x="1864.24609375" xlink:href="#Verdana-6f"/>
     <use x="1924.93945312" xlink:href="#Verdana-66"/>
     <use x="1960.09570312" xlink:href="#Verdana-20"/>
     <use x="1995.25195312" xlink:href="#Verdana-61"/>
     <use x="2055.31054688" xlink:href="#Verdana-6e"/>
     <use x="2118.59179688" xlink:href="#Verdana-20"/>
    </g>
    <!-- edge according to the null model -->
    <defs>
     <path d="
M88.625 0
L79.4375 0
L79.4375 31.0625
Q79.4375 34.5781 79.125 37.8438
Q78.8125 41.1094 77.7812 43.0625
Q76.6562 45.1719 74.5625 46.2344
Q72.4688 47.3125 68.5 47.3125
Q64.6562 47.3125 60.7969 45.375
Q56.9375 43.4531 53.0781 40.4844
Q53.2188 39.3594 53.3125 37.8594
Q53.4219 36.375 53.4219 34.9062
L53.4219 0
L44.2344 0
L44.2344 31.0625
Q44.2344 34.6719 43.9219 37.9062
Q43.6094 41.1562 42.5781 43.1094
Q41.4531 45.2188 39.3438 46.2656
Q37.25 47.3125 33.2969 47.3125
Q29.5469 47.3125 25.75 45.4531
Q21.9688 43.6094 18.2188 40.7188
L18.2188 0
L9.03125 0
L9.03125 54.5469
L18.2188 54.5469
L18.2188 48.4844
Q22.5156 52.0469 26.7812 54.0469
Q31.0625 56.0625 35.8906 56.0625
Q41.4531 56.0625 45.3281 53.7188
Q49.2188 51.375 51.125 47.2188
Q56.6875 51.9062 61.2812 53.9844
Q65.875 56.0625 71.0938 56.0625
Q80.0781 56.0625 84.3438 50.6094
Q88.625 45.1719 88.625 35.4062
z
" id="Verdana-6d"/>
     <path d="
M49.3594 3.42188
Q44.7812 1.21875 40.6562 0
Q36.5312 -1.21875 31.8906 -1.21875
Q25.9844 -1.21875 21.0469 0.515625
Q16.1094 2.25 12.5938 5.76562
Q9.03125 9.28125 7.07812 14.6406
Q5.125 20.0156 5.125 27.2031
Q5.125 40.5781 12.4688 48.1875
Q19.8281 55.8125 31.8906 55.8125
Q36.5781 55.8125 41.0938 54.4844
Q45.6094 53.1719 49.3594 51.2656
L49.3594 41.0625
L48.875 41.0625
Q44.6719 44.3438 40.2031 46.0938
Q35.75 47.8594 31.5 47.8594
Q23.6875 47.8594 19.1719 42.6094
Q14.6562 37.3594 14.6562 27.2031
Q14.6562 17.3281 19.0625 12.0312
Q23.4844 6.73438 31.5 6.73438
Q34.2812 6.73438 37.1562 7.46875
Q40.0469 8.20312 42.3281 9.375
Q44.3438 10.4062 46.0938 11.5469
Q47.8594 12.7031 48.875 13.5312
L49.3594 13.5312
z
" id="Verdana-63"/>
    </defs>
    <g transform="translate(122.731875 23.788375)scale(0.12 -0.12)">
     <use xlink:href="#Verdana-65"/>
     <use x="59.5703125" xlink:href="#Verdana-64"/>
     <use x="121.875" xlink:href="#Verdana-67"/>
     <use x="184.1796875" xlink:href="#Verdana-65"/>
     <use x="243.75" xlink:href="#Verdana-20"/>
     <use x="278.90625" xlink:href="#Verdana-61"/>
     <use x="338.96484375" xlink:href="#Verdana-63"/>
     <use x="391.064453125" xlink:href="#Verdana-63"/>
     <use x="443.1640625" xlink:href="#Verdana-6f"/>
     <use x="503.857421875" xlink:href="#Verdana-72"/>
     <use x="546.533203125" xlink:href="#Verdana-64"/>
     <use x="608.837890625" xlink:href="#Verdana-69"/>
     <use x="636.279296875" xlink:href="#Verdana-6e"/>
     <use x="699.560546875" xlink:href="#Verdana-67"/>
     <use x="761.865234375" xlink:href="#Verdana-20"/>
     <use x="797.021484375" xlink:href="#Verdana-74"/>
     <use x="836.42578125" xlink:href="#Verdana-6f"/>
     <use x="897.119140625" xlink:href="#Verdana-20"/>
     <use x="932.275390625" xlink:href="#Verdana-74"/>
     <use x="971.6796875" xlink:href="#Verdana-68"/>
     <use x="1034.9609375" xlink:href="#Verdana-65"/>
     <use x="1094.53125" xlink:href="#Verdana-20"/>
     <use x="1129.6875" xlink:href="#Verdana-6e"/>
     <use x="1192.96875" xlink:href="#Verdana-75"/>
     <use x="1256.25" xlink:href="#Verdana-6c"/>
     <use x="1283.69140625" xlink:href="#Verdana-6c"/>
     <use x="1311.1328125" xlink:href="#Verdana-20"/>
     <use x="1346.2890625" xlink:href="#Verdana-6d"/>
     <use x="1443.5546875" xlink:href="#Verdana-6f"/>
     <use x="1504.24804688" xlink:href="#Verdana-64"/>
     <use x="1566.55273438" xlink:href="#Verdana-65"/>
     <use x="1626.12304688" xlink:href="#Verdana-6c"/>
    </g>
   </g>
  </g>
 </g>
 <defs>
  <clipPath id="p124b8dd147">
   <rect height="223.2" width="334.8" x="54.0" y="28.8"/>
  </clipPath>
 </defs>
</svg>
